<?xml version="1.0" standalone="no"?>
<!DOCTYPE svg PUBLIC "-//W3C//DTD SVG 20010904//EN"
 "http://www.w3.org/TR/2001/REC-SVG-20010904/DTD/svg10.dtd">
<svg version="1.0" xmlns="http://www.w3.org/2000/svg"
 width="2460.000000pt" height="936.000000pt" viewBox="0 0 2460.000000 936.000000"
 preserveAspectRatio="xMidYMid meet">

<g transform="translate(0.000000,936.000000) scale(0.100000,-0.100000)"
fill="#000000" stroke="none">
<path d="M34 9308 c4 -29 11 -141 17 -248 5 -107 14 -271 19 -365 6 -93 15
-258 20 -365 6 -107 15 -262 20 -345 5 -82 14 -263 21 -402 14 -280 16 -270
-52 -302 -45 -22 -46 -20 -55 73 -3 33 -10 65 -15 70 -5 6 -8 -826 -6 -2065
l2 -2074 77 -3 77 -3 -4 33 c-19 155 -25 335 -30 783 -3 286 -7 552 -9 590 -3
39 -8 241 -11 450 -4 209 -9 407 -11 440 -2 33 -5 405 -6 827 -2 593 0 770 10
780 9 9 18 6 42 -17 33 -32 50 -79 50 -140 0 -77 8 -80 171 -78 79 1 167 3
196 3 64 0 83 17 83 73 0 47 27 113 56 138 23 21 153 73 161 65 17 -17 41
-422 44 -761 3 -251 13 -485 28 -630 6 -55 15 -174 21 -265 17 -260 56 -675
71 -760 11 -67 -8 -1206 -22 -1235 -5 -11 -10 -51 -12 -90 -1 -38 -4 19 -4
128 -1 108 -5 201 -8 206 -4 8 -13 282 -16 496 0 44 -4 98 -9 120 -7 39 -8 38
-9 -20 -6 -276 -5 -1248 2 -1252 5 -3 30 -6 56 -8 26 -1 63 -7 82 -13 71 -22
120 -33 128 -28 4 3 0 45 -9 93 -33 165 -40 220 -40 317 0 105 11 143 53 187
14 15 23 30 19 33 -11 12 -29 155 -32 261 -2 68 -8 160 -10 160 -3 0 -10 70
-16 160 -3 55 -7 116 -9 135 -2 19 -8 117 -14 218 -6 101 -13 186 -15 190 -5
8 -19 139 -21 202 -1 25 -3 47 -4 50 -8 19 -12 61 -16 180 -3 74 -8 146 -12
160 -3 14 -5 31 -4 38 1 8 -3 19 -9 27 -6 8 -7 16 -2 19 15 9 -1 206 -34 421
-10 62 -14 111 -19 230 -2 61 -5 110 -6 110 0 0 -3 23 -5 50 -3 28 -9 63 -14
78 -6 17 -6 37 0 53 6 14 7 31 3 37 -4 6 -8 59 -10 117 -4 138 -19 278 -68
620 -9 58 -18 155 -20 215 -3 61 -7 124 -10 140 -2 17 -7 98 -10 180 -7 189
-24 585 -30 690 -2 44 -7 141 -10 215 -5 117 -16 317 -29 540 -3 36 -5 77 -5
93 -1 26 -3 27 -56 27 l-56 0 5 -72 c3 -40 10 -181 16 -313 21 -472 41 -843
56 -1020 13 -167 32 -564 30 -645 -1 -32 -4 -35 -31 -37 -16 -1 -22 1 -12 3 9
3 17 9 17 14 0 5 -6 7 -14 4 -8 -3 -16 -2 -19 3 -3 5 -26 7 -52 5 l-46 -4 22
-25 c19 -19 21 -26 10 -33 -36 -22 -345 -31 -406 -11 -16 5 -24 10 -17 10 6 1
12 6 12 12 0 6 -19 9 -46 7 -30 -2 -48 1 -51 9 -7 19 32 34 100 38 214 15 343
19 348 12 4 -5 9 -5 13 1 3 5 22 13 42 17 l36 6 -48 25 c-27 14 -61 40 -76 57
-28 31 -65 123 -54 134 3 3 0 15 -5 26 -8 15 -8 22 2 28 11 6 10 13 -1 35 -9
16 -14 46 -12 73 6 88 -4 229 -18 246 -6 7 -6 15 1 22 12 12 19 132 9 138 -4
2 -7 18 -8 35 -1 26 2 30 19 25 14 -5 19 -2 19 10 0 11 -5 15 -14 12 -12 -5
-14 5 -13 46 1 29 -5 67 -12 84 -12 29 -11 36 3 57 10 17 12 27 5 31 -6 4 -9
29 -8 56 2 27 0 51 -3 55 -4 3 -4 13 -1 22 5 11 3 13 -6 7 -10 -6 -11 0 -6 26
4 19 12 37 17 40 7 4 6 9 -1 13 -6 4 -9 26 -6 53 2 26 0 52 -5 58 -10 12 -11
16 -10 190 1 149 1 135 -2 165 -2 14 -9 30 -17 36 -10 8 -11 13 -3 18 7 4 12
17 12 30 0 12 3 26 7 30 14 14 11 66 -3 66 -10 0 -13 7 -8 24 9 35 -19 46
-121 46 l-86 0 6 -32 c3 -18 10 -186 15 -373 5 -187 12 -376 14 -420 6 -100
24 -633 31 -907 5 -203 5 -208 -16 -229 l-22 -22 -17 23 c-21 27 -38 166 -45
365 -9 237 -14 420 -14 455 1 19 1 40 0 45 -2 17 -11 310 -16 525 -3 113 -9
270 -14 350 -4 80 -7 162 -7 183 l2 37 -69 0 -68 0 5 -52z m693 -2054 c-3 -3
-12 -4 -19 -1 -8 3 -5 6 6 6 11 1 17 -2 13 -5z m-660 -1211 c-1 -43 -3 -8 -3
77 0 85 2 120 3 78 2 -43 2 -113 0 -155z"/>
<path d="M4801 9333 c0 -16 3 -21 6 -13 3 8 12 21 21 28 14 10 13 12 -6 12
-18 0 -22 -6 -21 -27z"/>
<path d="M4935 9350 c3 -5 10 -10 16 -10 5 0 9 5 9 10 0 6 -7 10 -16 10 -8 0
-12 -4 -9 -10z"/>
<path d="M5092 9313 c-55 -221 -65 -617 -22 -908 32 -213 88 -423 141 -527 5
-10 9 -23 9 -29 0 -6 31 -73 69 -148 102 -205 215 -366 356 -506 97 -96 210
-188 248 -201 9 -4 17 -9 17 -13 0 -4 14 -15 31 -25 47 -28 26 -2 -29 36 -173
119 -443 413 -426 465 4 13 3 15 -4 4 -15 -21 -81 81 -173 269 -67 137 -73
154 -104 265 -9 33 -21 68 -26 77 -15 29 -11 58 9 59 11 0 7 4 -10 11 -21 7
-28 16 -28 36 1 25 2 26 15 9 13 -18 14 -17 17 10 2 16 8 27 16 26 17 -4 15
22 -3 37 -8 7 -15 20 -15 29 0 9 -6 27 -13 41 -10 18 -11 33 -4 53 6 19 6 32
-1 39 -8 8 -6 15 4 25 8 8 14 26 14 40 0 19 4 24 16 19 11 -4 18 1 21 15 3 12
11 18 19 15 8 -3 14 -1 14 4 0 4 11 21 24 37 14 16 28 42 32 58 7 26 6 28 -20
21 -27 -7 -28 -6 -21 26 4 18 12 39 18 46 17 21 15 85 -2 99 -14 11 -13 15 8
31 20 16 24 29 26 83 2 35 6 78 10 94 4 17 7 45 7 63 -1 19 8 73 18 120 15 66
16 88 7 94 -8 5 -7 8 5 8 10 0 22 9 28 20 10 20 8 20 -138 20 l-148 0 -12 -47z
m163 -623 c3 -5 1 -10 -4 -10 -6 0 -11 5 -11 10 0 6 2 10 4 10 3 0 8 -4 11
-10z m-54 -23 c-13 -13 -26 -3 -16 12 3 6 11 8 17 5 6 -4 6 -10 -1 -17z m-74
-339 c-3 -8 -6 -5 -6 6 -1 11 2 17 5 13 3 -3 4 -12 1 -19z"/>
<path d="M7244 9323 c4 -21 8 -153 10 -293 3 -140 8 -264 12 -274 7 -18 8 -18
21 0 8 11 13 45 13 88 0 39 4 77 9 84 7 13 -7 85 -22 109 -16 26 26 65 53 48
7 -4 10 38 8 132 l-3 138 -53 3 -54 3 6 -38z"/>
<path d="M7674 9248 c4 -62 8 -295 11 -518 9 -819 18 -1290 25 -1290 13 0 72
128 65 141 -5 8 -4 10 4 5 12 -8 12 -7 -9 143 -6 40 -13 160 -15 265 -2 105
-8 243 -11 306 -4 63 -6 119 -5 125 10 40 15 489 6 630 -2 33 -7 115 -11 183
l-7 122 -30 0 -29 0 6 -112z"/>
<path d="M8445 9337 c40 -157 39 -423 -1 -468 -11 -13 -12 -22 -3 -49 11 -30
10 -35 -12 -53 -22 -18 -24 -18 -28 -2 -1 10 4 22 13 27 20 11 21 38 1 38 -8
0 -15 7 -15 15 0 17 -16 20 -25 5 -4 -6 -16 -10 -28 -8 -16 2 -22 -2 -22 -17
0 -11 -4 -26 -8 -32 -4 -7 -3 -21 3 -32 16 -32 12 -41 -21 -41 -23 0 -30 -4
-26 -14 3 -8 -1 -17 -9 -20 -22 -8 -22 -8 -28 12 -3 9 -3 -15 0 -55 3 -43 1
-74 -5 -77 -11 -7 -10 -66 2 -66 4 0 7 -5 7 -11 0 -6 -9 -8 -20 -4 -11 3 -20
2 -20 -3 0 -6 5 -12 11 -14 13 -4 3 -48 -11 -48 -5 0 -10 10 -12 23 -3 13 -7
2 -11 -28 -13 -90 -38 -219 -54 -275 -8 -30 -17 -66 -20 -80 -2 -14 -8 -34
-12 -45 -5 -11 -21 -58 -36 -105 -51 -161 -159 -377 -282 -564 -35 -54 -70
-104 -76 -111 -7 -7 -31 -34 -53 -61 -83 -97 -257 -264 -276 -264 -4 0 -8 -5
-8 -10 0 -11 74 34 100 60 8 8 26 24 38 35 l23 19 -7 -29 c-10 -43 -51 -95
-76 -95 -14 0 -18 -5 -14 -15 3 -9 0 -15 -8 -15 -8 0 -21 -11 -30 -25 -9 -14
-20 -24 -24 -21 -5 3 -25 -11 -46 -30 -28 -25 -43 -33 -58 -28 -13 4 -18 2
-14 -4 4 -6 -3 -16 -14 -22 -11 -6 -20 -8 -20 -4 0 3 -7 1 -15 -6 -22 -18 -9
-29 23 -20 15 5 47 14 72 21 25 7 49 16 55 21 5 4 16 8 25 8 38 0 344 177 380
219 3 3 21 18 40 32 83 62 310 309 310 337 0 6 4 12 9 14 26 10 181 298 244
453 82 204 134 396 164 605 25 173 25 553 0 695 -30 171 -51 255 -65 255 -8 0
-10 -8 -7 -23z m-79 -595 c-4 -3 -11 -1 -18 6 -8 8 -8 15 3 28 13 16 14 16 17
-5 2 -13 1 -25 -2 -29z m44 -71 c0 -6 -4 -13 -10 -16 -5 -3 -10 1 -10 9 0 9 5
16 10 16 6 0 10 -4 10 -9z m-63 -23 c-3 -8 -6 -5 -6 6 -1 11 2 17 5 13 3 -3 4
-12 1 -19z m-150 -290 c-3 -8 -6 -5 -6 6 -1 11 2 17 5 13 3 -3 4 -12 1 -19z"/>
<path d="M10193 9348 c-12 -16 -75 -249 -103 -383 -44 -211 -46 -214 -86 -177
-25 24 -67 52 -75 52 -9 0 -28 -87 -31 -133 0 -18 -4 3 -8 45 -7 95 -25 122
-102 161 -44 23 -60 26 -76 18 -18 -9 -19 -20 -16 -127 4 -141 -7 -139 -40 6
-17 79 -28 107 -44 118 -48 32 -122 -32 -178 -153 -45 -98 -85 -246 -91 -335
-5 -65 -2 -82 17 -120 l22 -44 -25 17 c-15 9 -30 17 -35 17 -16 0 -52 -97 -69
-187 -14 -73 -17 -150 -16 -458 0 -395 9 -515 49 -705 14 -63 40 -191 59 -285
54 -270 102 -378 227 -510 199 -210 346 -273 608 -261 69 3 137 8 152 12 21 5
35 -2 72 -36 50 -46 56 -60 29 -61 -15 0 -15 -2 2 -9 12 -4 26 -14 32 -21 31
-38 199 -1019 238 -1389 2 -19 9 -87 16 -151 11 -111 9 -181 -9 -264 -8 -39
-9 -39 -19 -15 -6 14 -25 70 -43 125 -39 121 -118 288 -196 416 -64 105 -90
153 -118 219 -19 44 -29 65 -96 199 -17 36 -52 93 -76 127 -24 34 -44 68 -44
75 -2 37 -120 190 -120 155 0 -21 28 -190 40 -241 5 -22 18 -80 30 -130 12
-49 25 -108 30 -130 21 -91 74 -339 101 -475 16 -80 34 -165 40 -190 45 -188
106 -508 114 -590 3 -36 10 -101 16 -145 23 -193 49 -420 64 -550 8 -77 20
-169 25 -205 5 -36 12 -99 15 -140 3 -41 9 -103 12 -138 l6 -63 -27 7 c-46 11
-48 -25 -16 -236 22 -147 29 -256 23 -351 l-6 -97 -38 -11 c-21 -7 -43 -21
-49 -31 -37 -69 130 -128 430 -151 233 -18 431 2 535 52 28 13 31 20 36 79 4
36 11 83 17 105 6 22 15 56 20 75 5 19 22 67 37 105 86 223 102 286 72 298
-19 7 -39 -11 -86 -77 -22 -33 -41 -56 -41 -53 0 67 134 802 200 1097 4 19 17
82 30 140 12 58 32 128 45 156 42 90 56 143 71 268 13 111 30 187 80 354 10
34 22 62 27 62 5 0 25 -13 44 -30 18 -16 42 -30 51 -30 34 0 147 76 212 141
36 36 82 96 103 134 l37 68 0 1089 c0 629 -4 1087 -9 1084 -5 -3 -11 -18 -14
-33 -8 -49 -124 -393 -211 -630 -15 -40 -32 -58 -22 -23 4 14 11 39 16 55 5
17 31 98 59 180 28 83 55 164 60 180 25 83 65 217 83 275 11 35 20 84 20 107
0 24 4 43 9 43 5 0 9 21 9 47 0 34 -7 55 -25 79 -14 18 -25 42 -25 53 0 11 -4
23 -10 26 -5 3 -10 18 -10 32 0 16 -7 27 -19 30 -13 3 -17 11 -14 24 3 10 0
19 -6 19 -35 0 35 184 83 215 l26 17 0 1064 0 1064 -199 0 -199 0 -5 -47 c-3
-27 -10 -80 -16 -120 -5 -39 -13 -100 -16 -135 -4 -35 -10 -74 -15 -88 -5 -14
-11 -61 -14 -105 -3 -44 -17 -138 -31 -210 -14 -71 -25 -146 -25 -166 0 -36
-23 -203 -34 -249 -4 -14 -11 -70 -16 -125 -8 -95 -28 -248 -50 -380 -5 -33
-14 -100 -20 -150 -6 -49 -13 -97 -16 -105 -4 -8 -12 -62 -20 -120 -7 -58 -20
-145 -28 -195 -7 -49 -19 -133 -25 -185 -37 -322 -39 -333 -75 -328 -16 2 -20
9 -19 28 21 245 49 515 63 605 18 113 80 540 90 615 34 256 78 551 100 673 5
31 14 81 19 110 35 189 42 227 51 272 24 119 60 351 60 392 0 10 -31 13 -140
13 l-140 0 0 -40 c0 -40 -13 -53 -24 -24 -3 9 -6 26 -6 39 0 20 -5 22 -54 24
-52 1 -54 0 -70 -33 -8 -18 -23 -39 -32 -47 -9 -7 -20 -22 -25 -34 -6 -13 -7
-4 -3 27 10 76 2 88 -61 88 -43 0 -59 -5 -77 -23 -29 -29 -70 -57 -82 -57 -6
0 8 18 29 40 l39 40 -39 0 c-26 0 -46 -7 -62 -22 -25 -23 -44 -18 -23 7 12 14
-1 15 -121 13 -127 -3 -134 -4 -132 -23 1 -11 5 -83 8 -159 3 -77 8 -143 11
-148 3 -4 5 -56 5 -116 0 -59 4 -141 9 -182 6 -41 12 -133 14 -205 3 -71 7
-157 10 -190 11 -117 10 -615 -2 -627 -16 -16 -32 0 -31 30 1 15 -4 113 -10
217 -15 275 -30 633 -37 926 -4 140 -8 287 -9 325 -1 38 -2 88 -3 112 l-2 42
-299 0 c-227 0 -301 -3 -308 -12z m1127 -45 c0 -48 -204 -243 -228 -218 -4 4
2 12 12 19 38 22 92 76 141 140 44 57 75 82 75 59z m40 -93 c0 -26 -32 -68
-78 -102 -27 -21 -52 -38 -56 -38 -4 0 9 17 28 38 20 20 36 40 36 44 0 3 12
20 26 37 26 31 44 40 44 21z m920 -130 c0 -5 -5 -10 -11 -10 -5 0 -7 5 -4 10
3 6 8 10 11 10 2 0 4 -4 4 -10z m-1010 -159 c0 -32 -11 -51 -29 -51 -9 0 -22
-5 -29 -12 -6 -6 -15 -8 -19 -4 -4 4 7 20 25 34 18 15 32 33 32 40 0 6 5 12
10 12 6 0 10 -9 10 -19z m-976 -161 c21 -23 36 -43 33 -47 -9 -8 -76 36 -87
57 -25 46 6 40 54 -10z m746 10 c0 -5 -5 -10 -11 -10 -5 0 -7 5 -4 10 3 6 8
10 11 10 2 0 4 -4 4 -10z m193 -80 c-4 -4 -24 -11 -43 -15 l-35 -7 38 27 c20
14 38 33 38 43 1 9 4 4 6 -12 3 -16 1 -32 -4 -36z m-838 -1 c16 -16 -20 -10
-41 7 -18 14 -18 15 6 8 14 -3 29 -10 35 -15z m816 -142 c-1 -4 -1 -13 -1 -21
0 -8 -14 -17 -32 -21 -18 -4 -38 -12 -45 -17 -7 -5 -22 -8 -35 -6 -19 3 -14 8
32 32 30 16 57 33 59 38 3 10 23 6 22 -5z m-16 -140 c-6 -13 -43 -31 -88 -41
-40 -9 -26 9 26 34 49 23 68 25 62 7z m0 -95 c-6 -5 -30 -14 -55 -21 -25 -7
-55 -18 -67 -23 -11 -6 -27 -8 -35 -5 -9 4 -7 7 7 12 11 3 47 19 80 34 36 17
64 25 70 20 6 -6 6 -12 0 -17z m-1763 -99 c36 -56 42 -77 15 -55 -18 16 -70
112 -60 112 4 0 25 -26 45 -57z m1758 -32 c0 -14 -9 -21 -31 -26 -39 -9 -50 1
-16 14 14 5 28 15 32 20 9 16 15 13 15 -8z m-10 -137 c-7 -7 -16 -11 -22 -8
-5 3 -15 1 -23 -6 -8 -6 -26 -10 -42 -8 -28 3 -28 3 12 22 54 26 75 45 77 70
1 12 3 4 5 -17 3 -21 -1 -45 -7 -53z m-10 -121 c0 -35 -2 -38 -30 -38 -34 0
-40 14 -10 22 11 3 23 16 26 29 9 35 14 29 14 -13z m-5 -133 c-3 -5 -10 -10
-16 -10 -5 0 -9 5 -9 10 0 6 7 10 16 10 8 0 12 -4 9 -10z m-545 -602 c0 -11 9
-37 19 -57 51 -96 138 -338 126 -349 -8 -8 -35 27 -35 45 0 21 -40 135 -56
160 -8 12 -14 29 -14 37 0 9 -8 30 -18 48 -10 18 -22 49 -25 68 -3 19 -9 46
-13 59 -5 17 -4 22 4 17 7 -4 12 -16 12 -28z m-113 -85 c-3 -10 -5 -2 -5 17 0
19 2 27 5 18 2 -10 2 -26 0 -35z m6 -216 c3 -66 1 -95 -6 -88 -6 6 -11 37 -12
70 -2 58 4 125 10 119 2 -2 5 -47 8 -101z m1570 38 c-3 -8 -9 -15 -14 -15 -5
0 -9 -7 -9 -15 0 -8 -4 -15 -10 -15 -5 0 -10 -6 -10 -14 0 -8 -5 -18 -12 -22
-6 -4 -9 -3 -6 2 2 5 15 31 27 57 12 26 26 45 31 42 5 -3 7 -12 3 -20z m-871
-46 c58 -56 110 -84 176 -95 23 -4 45 -11 49 -17 11 -19 15 -140 4 -161 -10
-20 -46 -323 -58 -481 -4 -60 -14 -88 -68 -201 -35 -71 -70 -152 -77 -180 -7
-27 -21 -55 -30 -62 -10 -7 -18 -20 -18 -28 0 -7 -20 -58 -44 -111 -24 -54
-50 -119 -56 -145 -20 -77 -33 -58 -26 40 3 48 7 231 8 407 3 335 -10 556 -38
655 -9 30 -22 89 -30 130 -8 41 -24 118 -37 170 -12 52 -22 100 -22 105 0 9
32 13 187 23 20 2 40 -11 80 -49z m292 -366 c3 -62 11 -124 16 -138 21 -55 14
-97 -25 -157 -21 -32 -42 -58 -47 -58 -9 0 -4 99 13 228 5 40 9 109 9 152 0
54 4 80 13 83 6 2 13 4 13 3 1 0 4 -51 8 -113z m-927 -360 c-2 -21 -4 -6 -4
32 0 39 2 55 4 38 2 -18 2 -50 0 -70z m1037 -62 c9 -16 26 -42 40 -58 25 -29
25 -30 12 -104 -8 -41 -30 -108 -49 -149 -97 -208 -146 -401 -147 -575 -1 -97
-35 -228 -62 -232 -7 -2 -26 8 -43 22 l-29 24 18 83 c10 46 29 139 42 208 33
173 38 194 82 370 22 85 54 219 73 298 18 78 37 142 41 142 4 0 14 -13 22 -29z
m-989 -288 c4 -38 7 -84 8 -103 0 -19 6 -84 13 -145 35 -286 87 -536 126 -606
20 -36 21 -97 3 -214 -3 -22 -10 -84 -16 -138 -6 -54 -13 -96 -15 -95 -1 2
-12 69 -24 148 -34 236 -103 615 -177 970 -15 69 -28 146 -31 171 -4 45 -3 46
35 62 65 27 69 25 78 -50z m1401 -48 c-13 -36 -15 -37 -15 -13 -1 15 5 39 11
54 19 40 22 7 4 -41z m-26 -65 c0 -16 -4 -30 -8 -30 -5 0 -7 14 -4 30 2 17 6
30 8 30 2 0 4 -13 4 -30z m-93 -282 c-3 -7 -5 -2 -5 12 0 14 2 19 5 13 2 -7 2
-19 0 -25z m-20 -65 c-3 -10 -5 -2 -5 17 0 19 2 27 5 18 2 -10 2 -26 0 -35z
m-20 -45 c-3 -8 -6 -5 -6 6 -1 11 2 17 5 13 3 -3 4 -12 1 -19z m-1006 -443
c20 7 20 6 1 -32 -10 -21 -26 -54 -36 -73 l-17 -35 5 55 c11 109 17 135 23
102 3 -18 9 -21 24 -17z m908 -671 c34 -43 36 -101 8 -179 -17 -48 -27 -64
-32 -54 -9 14 -24 238 -18 252 7 13 21 7 42 -19z m-1074 -646 c5 -54 -6 -321
-31 -738 -4 -58 -10 -109 -14 -115 -4 -5 -8 -57 -8 -115 -1 -181 -45 -776 -51
-685 -4 64 -33 415 -41 500 -9 97 -48 419 -70 580 -13 93 -28 219 -36 290 -3
28 -10 60 -16 72 -7 13 -7 31 -1 49 8 23 19 30 57 40 26 7 65 24 87 38 39 26
89 93 89 119 0 15 9 27 21 27 4 0 10 -28 14 -62z m81 -390 c-3 -26 -1 -141 5
-254 9 -194 8 -213 -12 -308 -11 -55 -22 -103 -24 -105 -2 -1 -9 17 -15 40
-10 34 -10 96 -1 269 7 124 14 231 16 237 2 7 5 93 5 192 1 99 5 182 8 186 10
9 24 -200 18 -257z m109 160 c19 -13 37 -28 39 -35 3 -6 -6 -78 -20 -158 -13
-81 -24 -158 -24 -171 0 -13 -4 -24 -9 -24 -8 0 -15 74 -27 288 -4 67 -4 122
0 122 3 0 22 -10 41 -22z m675 -99 c-6 -24 -15 -64 -20 -89 -4 -25 -16 -76
-25 -115 -19 -80 -93 -427 -105 -495 -6 -30 -7 -3 -4 80 4 114 3 123 -11 106
-8 -11 -15 -30 -15 -42 0 -29 -10 -54 -21 -54 -5 0 -6 19 -4 43 17 145 45 415
51 490 l6 87 32 0 c17 0 51 11 76 24 25 13 46 20 48 16 1 -4 -2 -27 -8 -51z
m-210 36 c7 -9 10 -28 6 -47 -6 -36 -22 -167 -36 -298 -28 -273 -52 -459 -61
-487 -22 -68 -30 -33 -24 105 3 75 10 265 15 421 9 242 12 287 27 303 20 22
56 24 73 3z m-340 -129 c0 -79 -4 -137 -10 -141 -6 -4 -10 43 -10 134 0 87 4
141 10 141 6 0 10 -51 10 -134z m194 126 c4 -7 -79 -447 -89 -467 -3 -5 -2 26
1 70 3 44 7 107 8 140 4 83 17 237 22 253 4 13 50 17 58 4z m183 -834 c-3 -7
-5 -2 -5 12 0 14 2 19 5 13 2 -7 2 -19 0 -25z m-220 -185 c-2 -21 -4 -6 -4 32
0 39 2 55 4 38 2 -18 2 -50 0 -70z m-460 35 c-3 -8 -6 -5 -6 6 -1 11 2 17 5
13 3 -3 4 -12 1 -19z m520 -250 c-3 -7 -5 -2 -5 12 0 14 2 19 5 13 2 -7 2 -19
0 -25z"/>
<path d="M4776 9253 c-3 -27 -8 -69 -12 -95 -8 -60 11 -65 20 -5 15 94 18 147
8 147 -6 0 -13 -21 -16 -47z"/>
<path d="M4870 9281 c0 -5 7 -11 15 -15 9 -3 15 0 15 9 0 8 -7 15 -15 15 -8 0
-15 -4 -15 -9z"/>
<path d="M4855 9210 c-3 -5 -1 -10 4 -10 6 0 11 5 11 10 0 6 -2 10 -4 10 -3 0
-8 -4 -11 -10z"/>
<path d="M4752 9049 c-1 -14 -5 -48 -8 -75 -5 -37 -4 -46 5 -38 8 7 11 34 8
75 -2 35 -4 52 -5 38z"/>
<path d="M4630 9025 c0 -9 6 -12 15 -9 8 4 12 10 9 15 -8 14 -24 10 -24 -6z"/>
<path d="M8012 8970 c0 -19 2 -27 5 -17 2 9 2 25 0 35 -3 9 -5 1 -5 -18z"/>
<path d="M4551 8921 c-22 -14 -3 -31 36 -31 35 0 36 0 18 20 -20 22 -33 24
-54 11z"/>
<path d="M8011 8874 c0 -11 3 -14 6 -6 3 7 2 16 -1 19 -3 4 -6 -2 -5 -13z"/>
<path d="M8084 8755 c0 -77 2 -107 3 -67 2 40 2 103 0 140 -2 37 -3 4 -3 -73z"/>
<path d="M4626 8861 c-4 -5 -2 -12 3 -15 5 -4 12 -2 15 3 4 5 2 12 -3 15 -5 4
-12 2 -15 -3z"/>
<path d="M8012 8805 c0 -16 2 -22 5 -12 2 9 2 23 0 30 -3 6 -5 -1 -5 -18z"/>
<path d="M8266 8794 c-9 -23 -7 -44 3 -44 5 0 11 14 13 30 5 32 -6 41 -16 14z"/>
<path d="M4733 8740 c0 -30 2 -43 4 -27 2 15 2 39 0 55 -2 15 -4 2 -4 -28z"/>
<path d="M4530 8733 c0 -9 -7 -25 -16 -35 -14 -14 -14 -20 -4 -33 15 -18 42
-2 33 21 -3 7 2 17 11 20 24 9 20 44 -4 44 -12 0 -20 -7 -20 -17z"/>
<path d="M8012 8705 c0 -16 2 -22 5 -12 2 9 2 23 0 30 -3 6 -5 -1 -5 -18z"/>
<path d="M7270 8685 c1 -26 2 -28 11 -12 8 14 8 22 0 30 -8 8 -11 3 -11 -18z"/>
<path d="M4615 8680 c-8 -12 3 -50 14 -50 5 0 8 13 7 30 -1 30 -10 38 -21 20z"/>
<path d="M8197 8555 c-4 -8 -2 -17 3 -20 6 -4 10 3 10 14 0 25 -6 27 -13 6z"/>
<path d="M8011 8534 c0 -11 3 -14 6 -6 3 7 2 16 -1 19 -3 4 -6 -2 -5 -13z"/>
<path d="M7340 8496 c0 -9 7 -16 16 -16 9 0 14 5 12 12 -6 18 -28 21 -28 4z"/>
<path d="M4649 8475 c-3 -6 -3 -21 1 -35 3 -14 8 -20 11 -15 3 6 3 21 -1 35
-3 14 -8 20 -11 15z"/>
<path d="M7321 8431 c-6 -11 -11 -27 -11 -35 0 -9 -4 -24 -9 -34 -26 -51 -34
-107 -35 -238 0 -121 2 -143 17 -158 21 -21 22 -32 3 -43 -9 -5 -15 -29 -17
-63 -4 -83 0 -170 9 -170 8 0 44 76 62 132 6 21 16 40 21 43 13 9 11 89 -3
103 -7 7 -25 12 -40 12 -24 0 -28 4 -28 26 0 15 8 41 19 58 24 41 45 168 45
285 1 96 -11 125 -33 82z"/>
<path d="M7601 8434 c0 -11 3 -14 6 -6 3 7 2 16 -1 19 -3 4 -6 -2 -5 -13z"/>
<path d="M8007 8413 c-5 -7 -6 -17 -2 -23 3 -5 1 -38 -4 -72 -15 -96 -23 -258
-12 -258 5 0 11 17 14 38 3 20 10 60 14 87 10 59 2 246 -10 228z"/>
<path d="M4620 8398 c0 -4 9 -8 20 -8 11 0 20 4 20 9 0 6 -9 9 -20 8 -11 -1
-20 -5 -20 -9z"/>
<path d="M7603 8330 c0 -47 2 -66 4 -42 2 23 2 61 0 85 -2 23 -4 4 -4 -43z"/>
<path d="M4590 8240 c0 -5 9 -10 19 -10 11 0 23 5 26 10 4 6 -5 10 -19 10 -14
0 -26 -4 -26 -10z"/>
<path d="M4670 8217 c0 -18 27 -53 35 -45 2 2 -5 17 -15 33 -15 23 -20 26 -20
12z"/>
<path d="M4710 8086 c0 -8 5 -18 10 -21 6 -3 10 3 10 14 0 12 -4 21 -10 21 -5
0 -10 -6 -10 -14z"/>
<path d="M4610 8056 c0 -9 8 -13 23 -9 22 4 22 4 -3 -17 l-25 -22 23 -18 c49
-40 89 6 45 52 -28 30 -63 37 -63 14z"/>
<path d="M5200 8050 c0 -19 11 -26 23 -14 8 8 -3 34 -14 34 -5 0 -9 -9 -9 -20z"/>
<path d="M7972 8030 c0 -14 2 -19 5 -12 2 6 2 18 0 25 -3 6 -5 1 -5 -13z"/>
<path d="M7952 7975 c0 -16 2 -22 5 -12 2 9 2 23 0 30 -3 6 -5 -1 -5 -18z"/>
<path d="M7931 7914 c0 -11 3 -14 6 -6 3 7 2 16 -1 19 -3 4 -6 -2 -5 -13z"/>
<path d="M4712 7900 c4 -21 1 -25 -17 -25 -11 1 -26 5 -33 9 -7 4 -12 1 -12
-8 0 -9 3 -16 8 -17 4 0 26 -2 50 -5 36 -3 42 -1 42 14 0 11 -10 27 -21 38
-22 19 -22 19 -17 -6z"/>
<path d="M4748 7841 l-36 -39 19 -31 c10 -17 14 -31 9 -31 -17 0 -11 -17 9
-23 12 -3 25 5 37 21 10 14 25 31 32 38 11 11 10 22 -7 59 -11 25 -21 45 -23
44 -2 0 -19 -17 -40 -38z"/>
<path d="M4602 7726 c-12 -6 -20 -15 -18 -21 3 -10 11 -10 59 1 27 6 28 5 25
-22 -2 -21 -9 -30 -25 -32 -25 -4 -30 -17 -10 -29 23 -14 42 -12 71 6 l28 19
-23 16 c-13 8 -20 18 -16 22 7 7 -46 55 -59 53 -5 -1 -19 -6 -32 -13z"/>
<path d="M4825 7643 c6 -18 21 -42 33 -54 29 -26 28 -34 -8 -49 -16 -7 -32
-21 -36 -32 -3 -10 -15 -23 -27 -28 l-22 -9 23 0 c34 -1 91 26 99 46 3 10 12
25 20 34 12 14 9 19 -22 40 -40 27 -44 39 -14 39 15 0 20 5 17 22 -2 18 -10
22 -39 23 l-35 2 11 -34z"/>
<path d="M4713 7548 c-28 -13 -29 -29 -5 -51 26 -23 45 -21 72 8 19 20 21 27
10 40 -14 17 -45 18 -77 3z"/>
<path d="M0 7498 c0 -19 2 -20 10 -8 13 19 13 30 0 30 -5 0 -10 -10 -10 -22z"/>
<path d="M18335 7446 c-70 -22 -161 -74 -250 -140 l-86 -65 -57 10 c-31 6
-115 9 -187 7 -112 -4 -143 -9 -224 -37 -265 -90 -447 -282 -517 -546 -14 -51
-18 -104 -18 -195 0 -139 13 -206 68 -353 l35 -92 -35 -92 c-56 -150 -68 -213
-68 -358 0 -94 5 -148 18 -194 98 -356 402 -583 781 -583 61 0 130 4 155 10
40 10 48 9 70 -8 78 -61 224 -151 285 -175 60 -24 79 -27 150 -23 71 4 93 10
166 46 46 23 123 71 171 108 49 36 92 63 97 60 4 -3 48 -10 97 -16 326 -37
647 122 799 394 62 112 87 206 93 348 5 144 -12 242 -71 398 l-32 85 32 87
c53 140 65 196 70 324 6 135 -9 229 -52 335 -91 225 -298 400 -545 459 -94 22
-281 27 -358 10 -43 -10 -45 -10 -115 43 -202 150 -340 195 -472 153z m212
-48 c31 -11 80 -34 108 -51 58 -34 164 -110 165 -117 0 -3 -31 -17 -68 -33
-38 -15 -118 -61 -178 -102 -69 -48 -118 -75 -135 -75 -17 0 -68 27 -136 73
-60 40 -139 86 -176 102 -37 16 -67 33 -67 37 0 4 33 30 73 59 178 126 288
154 414 107z m-561 -198 c104 -27 182 -64 299 -144 53 -36 107 -69 121 -72 44
-11 91 6 168 61 104 75 167 109 261 142 74 25 91 27 240 28 180 0 223 -9 360
-75 195 -94 332 -265 387 -482 17 -69 20 -102 15 -208 -7 -179 -54 -322 -188
-579 -49 -92 -67 -137 -60 -144 17 -17 33 4 96 127 33 64 63 116 67 116 4 0
24 -51 44 -112 32 -99 37 -129 42 -238 4 -106 1 -139 -17 -210 -84 -339 -377
-561 -741 -561 -183 0 -323 45 -470 150 -165 118 -181 119 -329 11 -159 -115
-298 -161 -486 -161 -238 0 -413 75 -572 245 -148 158 -218 388 -183 603 13
84 65 259 79 268 5 3 38 -50 74 -117 36 -70 71 -124 81 -126 9 -2 16 3 16 10
0 8 -37 88 -83 178 -142 282 -193 477 -170 659 23 177 82 300 208 427 108 109
203 163 360 204 100 27 276 27 381 0z m496 -2166 c17 -9 61 -38 98 -65 65 -47
202 -119 227 -119 33 0 15 -16 -110 -100 -169 -113 -273 -128 -417 -59 -78 38
-220 133 -220 148 0 5 26 18 58 29 53 20 97 46 241 145 59 41 78 44 123 21z"/>
<path d="M18400 6794 c-21 -6 -961 -755 -974 -776 -15 -25 1 -35 29 -18 13 8
229 179 480 379 251 200 469 368 485 374 21 8 35 8 53 0 23 -11 882 -688 938
-739 28 -27 59 -32 59 -9 0 8 -69 70 -154 137 l-155 123 -3 235 -3 235 -160 0
-160 0 -5 -101 -5 -101 -130 104 c-200 161 -227 175 -295 157z m720 -290 c0
-130 -3 -195 -10 -192 -6 2 -62 44 -125 93 l-114 90 -1 103 0 102 125 0 125 0
0 -196z"/>
<path d="M18384 6403 c-57 -32 -644 -506 -644 -520 0 -30 41 -6 208 127 l177
140 5 -267 c3 -148 9 -276 14 -286 4 -10 17 -22 27 -27 10 -6 127 -10 274 -10
147 0 264 4 274 10 10 5 23 17 27 27 5 10 11 138 14 285 l5 267 175 -140 c160
-127 205 -154 205 -122 0 13 -602 496 -647 519 -36 19 -77 18 -114 -3z m148
-71 c35 -26 91 -70 125 -97 l63 -50 0 -273 c0 -169 -4 -281 -10 -293 -10 -18
-24 -19 -265 -19 -241 0 -255 1 -265 19 -6 12 -10 124 -10 294 l0 274 108 85
c122 97 139 107 169 108 12 0 50 -21 85 -48z"/>
<path d="M17720 5496 c0 -294 3 -317 49 -336 18 -7 226 -10 683 -8 l657 3 23
23 c23 22 23 26 26 307 3 281 3 285 -18 285 -20 0 -20 -5 -20 -270 0 -257 -1
-271 -20 -290 -20 -20 -33 -20 -662 -20 -387 0 -649 4 -658 10 -13 8 -16 55
-20 287 -5 254 -6 278 -22 281 -17 3 -18 -15 -18 -272z"/>
<path d="M17336 5631 c-7 -11 3 -41 13 -41 18 0 30 24 20 37 -13 15 -26 17
-33 4z"/>
<path d="M19503 5624 c-9 -24 19 -37 34 -17 10 13 10 18 0 25 -18 12 -27 10
-34 -8z"/>
<path d="M17436 5477 c-16 -12 -16 -14 -2 -26 9 -8 21 -9 31 -4 13 7 13 12 2
26 -10 15 -15 16 -31 4z"/>
<path d="M19406 5474 c-7 -19 1 -34 19 -34 18 0 26 25 12 39 -15 15 -24 14
-31 -5z"/>
<path d="M17537 5329 c-14 -8 -15 -14 -6 -31 10 -18 13 -19 26 -5 21 21 5 50
-20 36z"/>
<path d="M19304 5319 c-3 -6 0 -17 8 -25 13 -13 16 -13 27 0 7 8 10 20 6 26
-8 13 -32 13 -41 -1z"/>
<path d="M4695 7420 c-3 -5 3 -10 14 -10 12 0 21 5 21 10 0 6 -6 10 -14 10 -8
0 -18 -4 -21 -10z"/>
<path d="M4765 7418 c-2 -7 -5 -26 -7 -43 -2 -23 -8 -31 -28 -33 -39 -6 -50
-21 -50 -68 0 -31 6 -50 21 -65 21 -21 46 -21 42 0 -2 6 6 11 17 11 14 0 20
-7 20 -22 0 -13 7 -32 15 -42 20 -26 19 -33 -6 -39 -17 -5 -20 -11 -15 -31 3
-14 2 -28 -4 -31 -5 -3 -10 3 -10 14 0 16 -6 21 -29 21 -31 0 -57 -22 -46 -40
4 -7 18 -9 31 -6 19 5 24 2 24 -13 0 -10 6 -23 13 -29 20 -17 60 14 52 39 -5
16 -1 19 29 19 27 0 40 -6 52 -25 16 -24 16 -27 -1 -39 -23 -16 -13 -46 15
-46 13 0 20 -7 20 -20 0 -13 12 -25 36 -35 45 -18 44 -18 44 0 0 8 7 15 15 15
11 0 14 -7 10 -23 -8 -30 21 -59 35 -37 5 8 6 18 4 22 -3 5 6 18 21 30 20 16
25 28 23 52 -3 31 -3 31 -63 32 -33 0 -70 6 -81 12 -12 6 -24 9 -27 5 -13 -12
-18 26 -7 47 17 32 43 60 51 55 4 -3 9 2 13 10 3 8 1 15 -4 15 -5 0 -11 8 -15
18 -3 11 -17 24 -31 30 -32 15 -34 15 -34 -1 0 -8 -14 -26 -31 -41 -24 -22
-33 -25 -45 -15 -22 18 -16 36 15 42 28 6 28 8 23 53 -5 43 -3 47 14 40 22 -9
22 -9 53 -7 20 1 22 3 10 17 -8 10 -15 12 -17 5 -2 -6 -10 -11 -18 -11 -15 0
-18 18 -8 44 5 13 9 14 20 5 8 -7 18 -8 22 -4 4 4 1 10 -5 12 -18 6 -16 33 2
33 8 0 15 5 15 11 0 8 -18 10 -53 7 -50 -4 -53 -3 -68 26 -17 33 -65 49 -74
24z m61 -89 c4 -7 -3 -19 -16 -29 -16 -12 -19 -19 -10 -22 18 -6 5 -38 -14
-38 -22 0 -41 39 -27 53 6 6 11 19 11 29 0 21 44 26 56 7z m-19 -151 c-3 -8
-6 -5 -6 6 -1 11 2 17 5 13 3 -3 4 -12 1 -19z"/>
<path d="M7268 7128 c-3 -79 -2 -146 1 -150 4 -4 31 14 61 41 47 42 54 53 56
88 2 34 -2 42 -18 46 -11 3 -19 13 -18 24 5 39 1 48 -12 30 -11 -15 -13 -12
-13 20 0 34 -3 38 -26 41 l-27 3 -4 -143z"/>
<path d="M7341 7254 c0 -11 3 -14 6 -6 3 7 2 16 -1 19 -3 4 -6 -2 -5 -13z"/>
<path d="M5008 7143 c6 -2 18 -2 25 0 6 3 1 5 -13 5 -14 0 -19 -2 -12 -5z"/>
<path d="M4808 6959 c-10 -5 -18 -19 -18 -29 0 -24 36 -27 65 -6 16 12 17 16
6 30 -15 18 -29 20 -53 5z"/>
<path d="M4730 6926 c-18 -35 -6 -58 27 -54 23 2 28 8 25 26 -2 21 -23 52 -35
52 -2 0 -9 -11 -17 -24z"/>
<path d="M4671 6904 c0 -11 3 -14 6 -6 3 7 2 16 -1 19 -3 4 -6 -2 -5 -13z"/>
<path d="M4596 6843 c12 -49 44 -57 70 -18 9 14 15 27 13 29 -2 2 -23 6 -47
10 -42 6 -42 6 -36 -21z"/>
<path d="M4731 6851 c-8 -5 -9 -11 -3 -15 7 -4 7 -17 2 -36 -10 -36 3 -39 40
-10 l25 19 -25 25 c-17 17 -30 23 -39 17z"/>
<path d="M4839 6813 c-6 -15 -13 -40 -16 -55 -5 -27 -4 -28 28 -22 19 4 36 8
38 10 2 2 18 -8 35 -21 47 -35 70 -36 74 -2 2 17 -4 37 -14 48 -16 17 -19 18
-40 4 -30 -19 -44 -19 -44 0 0 9 -7 18 -15 21 -8 4 -15 12 -15 19 0 27 -20 26
-31 -2z"/>
<path d="M5026 6775 c-21 -32 -20 -48 2 -62 15 -9 26 -8 50 4 38 19 41 45 7
67 -33 21 -40 20 -59 -9z"/>
<path d="M4633 6768 c-25 -12 -29 -23 -13 -33 12 -8 60 21 60 35 0 13 -19 12
-47 -2z"/>
<path d="M7098 6733 c7 -3 16 -2 19 1 4 3 -2 6 -13 5 -11 0 -14 -3 -6 -6z"/>
<path d="M7130 6690 c-13 -8 -12 -10 3 -10 9 0 17 5 17 10 0 12 -1 12 -20 0z"/>
<path d="M4718 6669 c-19 -11 -25 -39 -8 -39 6 0 27 7 48 15 29 13 34 18 22
25 -19 12 -41 12 -62 -1z"/>
<path d="M4594 6659 c-8 -13 16 -31 33 -24 7 2 15 0 19 -6 4 -6 11 -6 21 2 12
11 11 14 -9 25 -29 16 -55 17 -64 3z"/>
<path d="M150 6608 c0 -24 5 -234 10 -468 5 -234 14 -753 19 -1155 20 -1437
22 -1519 34 -1532 14 -14 176 -34 257 -32 70 1 278 18 306 24 46 10 48 32 41
578 -4 282 -12 766 -17 1077 -6 311 -14 780 -19 1043 -4 263 -10 480 -13 482
-7 7 -426 10 -433 3 -3 -3 -22 1 -43 8 -20 7 -61 13 -89 14 l-53 0 0 -42z"/>
<path d="M4833 6604 c-3 -9 2 -21 15 -30 15 -10 20 -23 17 -50 -1 -24 2 -37
12 -41 22 -8 27 4 14 33 -11 24 -10 26 8 21 32 -8 57 65 25 77 -31 12 -84 6
-91 -10z"/>
<path d="M4996 6585 c-10 -15 -14 -34 -10 -49 4 -17 1 -27 -11 -33 -14 -8 -14
-11 -2 -21 19 -16 53 22 59 68 9 62 -8 78 -36 35z"/>
<path d="M4671 6554 c-11 -15 -21 -31 -21 -37 0 -5 -7 -15 -16 -22 -15 -11
-15 -14 1 -38 14 -22 20 -25 37 -16 11 6 37 8 61 4 l42 -7 -22 24 c-13 13 -23
33 -23 44 0 10 -9 32 -19 47 l-18 28 -22 -27z"/>
<path d="M4570 6540 c-13 -8 -12 -10 3 -10 9 0 17 5 17 10 0 12 -1 12 -20 0z"/>
<path d="M4796 6534 c-3 -8 -3 -21 0 -29 5 -11 10 -12 24 -3 10 6 16 17 13 24
-7 19 -31 24 -37 8z"/>
<path d="M4550 6475 c-10 -12 -10 -15 3 -15 19 0 31 16 18 24 -5 3 -14 -1 -21
-9z"/>
<path d="M5032 6433 c-31 -60 -16 -101 32 -89 31 8 41 38 24 73 -16 33 -43 41
-56 16z"/>
<path d="M4667 6392 c-10 -10 -17 -31 -17 -47 0 -25 -2 -27 -30 -22 -16 4 -39
16 -50 27 -11 11 -33 20 -51 20 -29 0 -31 -2 -24 -27 3 -16 13 -34 20 -42 13
-13 17 -12 36 5 21 18 22 18 16 0 -6 -15 -3 -18 18 -14 19 4 23 2 15 -7 -5 -6
-11 -27 -12 -46 l-3 -34 47 -1 c39 -2 48 2 53 17 4 11 10 17 15 14 10 -6 75
53 66 62 -3 3 -6 1 -6 -6 0 -8 -7 -7 -24 4 -22 15 -23 18 -11 52 7 21 11 43 8
50 -7 19 -47 16 -66 -5z m15 -105 c-7 -26 -8 -26 -29 -12 l-22 16 21 25 c17
19 24 21 30 11 4 -8 4 -26 0 -40z"/>
<path d="M4788 6363 c7 -3 16 -2 19 1 4 3 -2 6 -13 5 -11 0 -14 -3 -6 -6z"/>
<path d="M4870 6340 c-17 -10 -16 -12 29 -28 42 -14 50 -9 26 18 -20 22 -33
24 -55 10z"/>
<path d="M5065 6290 c32 -33 53 -38 61 -15 10 24 -15 45 -54 45 l-36 0 29 -30z"/>
<path d="M4490 6215 c0 -8 9 -15 20 -15 11 0 20 7 20 15 0 8 -9 15 -20 15 -11
0 -20 -7 -20 -15z"/>
<path d="M4906 6213 c-12 -12 -5 -23 14 -23 11 0 20 4 20 9 0 11 -26 22 -34
14z"/>
<path d="M4867 6163 c-2 -5 -7 -21 -11 -36 -6 -27 -5 -27 16 -16 42 22 49 30
37 45 -12 15 -35 19 -42 7z"/>
<path d="M4500 6125 c-13 -14 -21 -28 -17 -31 7 -8 67 34 67 47 0 17 -27 9
-50 -16z"/>
<path d="M4755 6140 c-12 -4 -26 -15 -33 -23 -11 -13 -8 -17 22 -27 58 -19
106 23 57 50 -22 11 -19 11 -46 0z"/>
<path d="M4650 6110 c0 -5 5 -10 10 -10 6 0 10 5 10 10 0 6 -4 10 -10 10 -5 0
-10 -4 -10 -10z"/>
<path d="M4515 6040 c-3 -5 -1 -10 4 -10 6 0 11 5 11 10 0 6 -2 10 -4 10 -3 0
-8 -4 -11 -10z"/>
<path d="M4684 5963 c-5 -19 -2 -30 11 -40 24 -17 34 -17 41 1 6 15 -23 66
-37 66 -5 0 -12 -12 -15 -27z"/>
<path d="M4870 5950 c0 -6 17 -10 37 -10 43 0 41 5 -4 13 -19 4 -33 2 -33 -3z"/>
<path d="M4682 5846 c6 -20 18 -36 25 -36 22 0 12 40 -14 57 -21 14 -21 14
-11 -21z"/>
<path d="M3484 5855 c-7 -18 -1 -141 21 -395 18 -207 21 -328 8 -341 -6 -6
-44 -14 -84 -19 -185 -23 -319 -47 -277 -49 21 -1 38 -31 38 -65 0 -33 -20
-76 -36 -76 -7 0 -16 -9 -19 -20 -4 -13 -15 -20 -31 -20 -14 0 -35 -7 -48 -16
-16 -10 -26 -12 -31 -5 -3 6 -11 11 -16 11 -6 0 -7 -5 -4 -10 10 -17 -15 -40
-42 -40 -13 0 -33 -5 -44 -10 -16 -9 -21 -7 -29 15 -11 28 -32 34 -29 8 3 -37
-1 -42 -36 -41 -26 1 -35 6 -37 22 -4 29 -45 34 -51 6 -4 -19 -5 -18 -5 2 0
13 -1 25 -2 28 -7 21 -7 60 1 60 5 0 9 20 9 45 0 36 3 45 18 45 9 0 24 5 32
11 11 8 -8 9 -70 6 -47 -3 -92 -8 -100 -11 -13 -5 -15 -32 -14 -162 1 -85 3
-157 5 -159 8 -7 164 16 176 27 18 14 570 4 738 -13 103 -11 144 -10 290 4 94
9 190 24 215 33 35 13 88 16 247 16 194 1 202 1 192 19 -5 11 -15 19 -22 19
-7 0 -6 4 3 10 12 7 8 11 -17 16 -45 9 -32 30 15 26 33 -3 41 0 56 24 18 27
18 27 -4 21 -12 -3 -29 0 -37 6 -36 30 -53 52 -53 69 0 15 -8 18 -50 18 -38 0
-48 -3 -44 -14 3 -7 -2 -16 -10 -19 -9 -4 -16 -14 -16 -22 0 -22 -85 -17 -86
5 -1 8 -2 22 -2 30 -3 21 -53 40 -73 27 -24 -15 -67 0 -75 26 -19 58 -34 260
-40 560 -5 215 -9 277 -19 277 -7 0 -16 -7 -19 -16 -3 -8 -3 -179 1 -380 4
-252 3 -364 -4 -364 -6 0 -10 -6 -9 -12 0 -7 -3 -13 -9 -13 -5 0 -9 5 -9 12 3
22 -57 33 -172 33 -115 0 -137 7 -86 27 l27 11 -37 1 c-20 1 -49 -4 -64 -9
-15 -6 -29 -9 -31 -6 -7 7 -21 125 -33 271 -6 77 -15 187 -21 245 -5 58 -10
132 -12 164 -2 59 -20 86 -33 51z m359 -782 c-7 -2 -19 -2 -25 0 -7 3 -2 5 12
5 14 0 19 -2 13 -5z m-519 -28 c7 -27 1 -45 -14 -45 -10 0 -22 48 -15 60 11
17 23 11 29 -15z m643 -46 c8 -8 8 -19 0 -40 -10 -25 -9 -31 11 -45 60 -42 5
-101 -148 -157 l-115 -42 -170 1 c-193 1 -416 31 -444 58 -28 29 4 65 104 118
50 25 99 48 110 51 11 3 47 12 80 21 77 20 239 20 384 1 62 -8 116 -17 121
-20 18 -11 40 8 40 36 0 30 9 36 27 18z m-1237 -34 c0 -14 -4 -25 -10 -25 -11
0 -14 33 -3 43 11 11 13 8 13 -18z m1644 -26 c-3 -5 -10 -7 -15 -3 -5 3 -7 10
-3 15 3 5 10 7 15 3 5 -3 7 -10 3 -15z m-276 -5 c12 -8 20 -20 16 -26 -4 -6
-10 -6 -16 0 -6 6 -18 8 -27 5 -14 -4 -14 -3 -1 6 13 10 13 12 0 21 -8 5 -10
10 -5 10 6 0 21 -7 33 -16z"/>
<path d="M3378 4853 c23 -2 61 -2 85 0 23 2 4 4 -43 4 -47 0 -66 -2 -42 -4z"/>
<path d="M4792 5841 c4 -13 18 -16 19 -4 0 4 -5 9 -11 12 -7 2 -11 -2 -8 -8z"/>
<path d="M5870 5253 c-14 -3 -36 -13 -51 -24 -15 -10 -34 -16 -47 -12 -26 6
-72 -4 -72 -17 0 -20 -49 -60 -74 -60 -15 0 -29 -7 -33 -15 -5 -16 22 -55 39
-55 5 0 26 -12 46 -26 40 -28 44 -28 -45 -8 -18 4 -7 -5 27 -24 48 -25 83 -36
198 -58 12 -2 22 -11 22 -20 0 -9 7 -14 18 -13 25 4 63 -11 57 -22 -4 -5 1 -9
10 -9 9 0 14 4 10 9 -3 6 4 19 16 30 20 18 20 21 5 27 -13 5 -14 9 -5 20 6 8
16 14 21 14 20 0 99 62 113 90 20 39 19 49 -8 61 -32 14 -68 -1 -127 -57 -54
-51 -65 -50 -25 2 30 40 33 80 6 89 -12 4 -18 12 -14 21 4 11 9 12 19 3 16
-13 18 -1 5 20 -5 8 -16 11 -25 8 -10 -4 -16 -1 -16 7 0 13 -23 28 -38 25 -4
-1 -18 -4 -32 -6z m50 -94 c0 -6 -8 -18 -17 -27 -16 -16 -16 -16 -10 1 4 10 7
25 7 33 0 9 5 12 10 9 6 -3 10 -11 10 -16z"/>
<path d="M4085 5074 l-30 -26 26 7 c22 5 28 2 39 -24 14 -36 30 -32 30 7 -1
23 -20 62 -31 62 -2 0 -17 -12 -34 -26z"/>
<path d="M931 4845 c0 -126 2 -240 5 -253 10 -37 34 -7 34 43 0 35 4 44 25 53
28 13 31 30 10 58 -8 10 -15 28 -15 40 0 11 -5 25 -10 30 -6 6 -15 46 -20 90
-23 183 -28 173 -29 -61z"/>
<path d="M4635 5023 c-51 -5 -60 -15 -36 -37 19 -17 22 -17 70 5 47 22 59 41
23 37 -9 -1 -35 -3 -57 -5z"/>
<path d="M2860 5001 c0 -30 17 -34 22 -6 4 17 1 25 -8 25 -8 0 -14 -9 -14 -19z"/>
<path d="M4760 4999 c0 -5 5 -7 10 -4 6 3 10 8 10 11 0 2 -4 4 -10 4 -5 0 -10
-5 -10 -11z"/>
<path d="M4800 4979 c0 -18 2 -19 15 -9 8 7 15 16 15 21 0 5 -7 9 -15 9 -9 0
-15 -9 -15 -21z"/>
<path d="M2413 4975 c-95 -15 -103 -19 -102 -48 0 -12 3 -16 6 -9 10 26 21 10
26 -40 3 -29 10 -77 15 -107 12 -72 5 -103 -19 -96 -13 4 -19 1 -19 -9 0 -22
115 -32 189 -15 l58 12 -1 164 -1 163 -35 -1 c-19 -1 -72 -7 -117 -14z"/>
<path d="M2787 4904 c-11 -11 -8 -52 4 -60 21 -12 31 12 17 40 -8 15 -17 24
-21 20z"/>
<path d="M2310 4800 c0 -51 3 -90 6 -87 7 7 5 169 -2 176 -2 2 -4 -38 -4 -89z"/>
<path d="M5978 4865 c-11 -11 17 -55 35 -55 12 0 17 8 17 30 0 25 -4 30 -23
30 -13 0 -26 -2 -29 -5z"/>
<path d="M7094 4812 c7 -12 -29 -26 -44 -17 -6 3 -20 3 -33 -1 -20 -6 -18 -8
17 -21 22 -7 47 -11 57 -8 10 3 57 -1 106 -9 97 -17 278 -22 448 -11 61 3 125
6 143 6 17 -1 32 4 32 9 0 13 -157 13 -165 0 -4 -6 -10 -8 -14 -6 -19 12 -155
35 -167 28 -17 -10 -115 -2 -109 8 6 11 -62 21 -130 19 -27 0 -72 3 -99 6 -33
5 -46 4 -42 -3z"/>
<path d="M6655 4800 c-3 -5 -1 -10 4 -10 6 0 11 5 11 10 0 6 -2 10 -4 10 -3 0
-8 -4 -11 -10z"/>
<path d="M5891 4779 c-1 -9 6 -20 14 -23 14 -5 14 -8 0 -29 -8 -13 -16 -49
-18 -80 -1 -36 -7 -59 -15 -62 -7 -3 -11 -9 -8 -13 9 -15 -92 -35 -140 -27
-28 4 -44 3 -44 -4 0 -6 8 -11 17 -11 10 0 37 -7 60 -16 38 -15 60 -15 176 -6
156 12 171 17 161 46 -3 11 -10 50 -14 86 -4 36 -8 59 -8 53 -3 -23 -20 -14
-31 17 -11 33 -35 39 -50 13 -9 -16 -12 -14 -23 15 -10 25 -18 32 -39 32 -15
0 -30 6 -32 13 -4 7 -6 6 -6 -4z m59 -53 c0 -3 -4 -8 -10 -11 -5 -3 -10 -1
-10 4 0 6 5 11 10 11 6 0 10 -2 10 -4z m48 -67 c19 -29 11 -31 -18 -3 -17 17
-20 24 -10 24 8 0 21 -9 28 -21z"/>
<path d="M5980 4760 c0 -5 9 -10 20 -10 11 0 20 5 20 10 0 6 -9 10 -20 10 -11
0 -20 -4 -20 -10z"/>
<path d="M7893 4743 c15 -2 37 -2 50 0 12 2 0 4 -28 4 -27 0 -38 -2 -22 -4z"/>
<path d="M7988 4743 c6 -2 18 -2 25 0 6 3 1 5 -13 5 -14 0 -19 -2 -12 -5z"/>
<path d="M8453 4695 c23 -12 32 -12 60 0 l32 14 -60 1 c-58 0 -59 -1 -32 -15z"/>
<path d="M6680 4594 c-41 -13 -88 -28 -105 -33 -29 -9 -101 -24 -270 -56 -44
-8 -126 -20 -183 -27 -101 -12 -102 -12 -102 -39 0 -49 -15 -53 -203 -45 -165
6 -384 26 -512 46 -111 17 -199 22 -215 11 -26 -19 5 -28 129 -40 64 -7 152
-16 196 -21 44 -5 130 -14 190 -20 61 -6 174 -17 253 -25 113 -12 168 -13 260
-5 151 14 299 35 335 49 16 6 48 11 72 11 25 0 64 6 87 14 24 7 66 19 93 26
28 7 58 17 68 22 31 16 1 38 -52 39 l-46 1 59 17 c66 19 82 35 72 74 -8 34
-25 34 -126 1z"/>
<path d="M9573 4613 c9 -2 17 -9 17 -14 0 -5 47 -8 108 -7 l107 1 -100 8 c-55
4 -111 9 -125 12 -14 2 -17 2 -7 0z"/>
<path d="M947 4554 c-4 -4 -7 -14 -7 -23 0 -11 3 -12 11 -4 6 6 10 16 7 23 -2
6 -7 8 -11 4z"/>
<path d="M2318 4468 c2 -51 7 -239 11 -418 l8 -325 1 418 c2 336 -1 417 -11
417 -10 0 -12 -21 -9 -92z"/>
<path d="M7178 4528 c-4 -11 -35 -14 -162 -16 -44 -1 -77 -4 -75 -6 2 -2 47
-6 101 -10 110 -6 181 -13 288 -26 104 -13 326 -22 317 -14 -4 4 -22 8 -40 10
-85 6 -149 18 -153 28 -3 7 -32 10 -85 7 -60 -2 -84 0 -97 12 -21 18 -90 29
-94 15z"/>
<path d="M8395 4371 c3 -6 33 -8 66 -6 50 3 60 1 55 -11 -3 -8 0 -15 7 -15 7
-1 39 -3 72 -5 97 -5 152 -11 163 -18 5 -3 13 1 16 9 4 11 -3 19 -20 25 -14 6
-29 8 -33 6 -4 -3 -48 1 -97 9 -102 17 -238 20 -229 6z"/>
<path d="M4803 4303 c15 -2 37 -2 50 0 12 2 0 4 -28 4 -27 0 -38 -2 -22 -4z"/>
<path d="M4978 4283 c18 -2 45 -2 60 0 15 2 0 4 -33 4 -33 0 -45 -2 -27 -4z"/>
<path d="M5153 4263 c20 -2 54 -2 75 0 20 2 3 4 -38 4 -41 0 -58 -2 -37 -4z"/>
<path d="M5333 4243 c20 -2 54 -2 75 0 20 2 3 4 -38 4 -41 0 -58 -2 -37 -4z"/>
<path d="M5509 4227 c4 -4 35 -7 67 -5 l59 3 -67 5 c-37 3 -63 1 -59 -3z"/>
<path d="M5685 4210 c17 -4 46 -8 65 -8 28 -1 31 1 15 8 -11 5 -40 8 -65 8
-41 0 -42 -1 -15 -8z"/>
<path d="M5875 4190 c28 -4 57 -3 65 1 9 5 -11 8 -50 7 l-65 -1 50 -7z"/>
<path d="M6075 4169 c85 -10 300 -20 275 -14 -21 6 -160 16 -265 19 l-90 3 80
-8z"/>
<path d="M6388 4133 c6 -2 18 -2 25 0 6 3 1 5 -13 5 -14 0 -19 -2 -12 -5z"/>
<path d="M6498 4133 c6 -2 18 -2 25 0 6 3 1 5 -13 5 -14 0 -19 -2 -12 -5z"/>
<path d="M6594 4119 c-3 -5 21 -9 52 -9 32 0 55 2 53 4 -10 8 -100 13 -105 5z"/>
<path d="M6765 4100 c11 -5 43 -8 70 -8 39 0 45 2 25 8 -36 11 -122 11 -95 0z"/>
<path d="M2215 4081 c-11 -5 -58 -21 -105 -35 -113 -36 -307 -132 -321 -159
-15 -26 -2 -859 13 -868 5 -3 58 -9 116 -13 59 -4 132 -13 162 -21 71 -18 196
-24 193 -9 -1 6 -5 249 -8 540 -3 291 -8 539 -11 552 -5 24 -8 25 -39 13z"/>
<path d="M6965 4080 c75 -12 113 -12 95 0 -8 5 -44 9 -80 9 l-65 -2 50 -7z"/>
<path d="M7095 4065 c25 -8 155 -11 155 -4 0 5 -37 9 -82 8 -46 0 -78 -2 -73
-4z"/>
<path d="M7318 4043 c23 -2 61 -2 85 0 23 2 4 4 -43 4 -47 0 -66 -2 -42 -4z"/>
<path d="M7450 4029 c0 -5 39 -9 87 -9 47 0 84 2 82 4 -10 8 -169 13 -169 5z"/>
<path d="M14883 4016 c-70 -14 -85 -23 -57 -31 50 -16 49 -13 52 -196 3 -207
0 -236 -34 -251 -51 -23 -21 -29 134 -26 153 3 160 4 200 30 62 41 94 104 100
194 8 129 -35 221 -123 264 -57 28 -182 35 -272 16z m228 -49 c139 -94 130
-362 -14 -416 -44 -17 -102 -13 -128 8 -23 19 -24 23 -27 211 -2 137 0 196 9
206 20 24 119 18 160 -9z"/>
<path d="M7640 4009 c0 -5 37 -9 83 -8 96 1 92 6 -10 12 -40 2 -73 0 -73 -4z"/>
<path d="M15680 4010 c0 -6 11 -15 24 -19 13 -5 26 -17 30 -26 3 -9 6 -104 6
-211 l0 -195 -30 -17 c-16 -9 -30 -20 -30 -24 0 -5 41 -8 90 -8 92 0 110 8 65
28 -24 11 -25 15 -25 112 l0 100 120 0 120 0 0 -90 c0 -77 -3 -93 -20 -110
-11 -11 -24 -20 -30 -20 -5 0 -10 -4 -10 -10 0 -6 37 -10 90 -10 91 0 110 8
66 28 -34 15 -39 52 -34 245 3 127 8 169 21 194 9 18 17 34 17 38 0 3 -36 5
-80 5 -81 0 -99 -9 -57 -31 34 -18 37 -27 37 -116 l0 -83 -120 0 -120 0 0 78
c0 58 5 85 19 109 11 17 17 34 14 37 -11 11 -163 7 -163 -4z"/>
<path d="M19582 4008 c-17 -17 -15 -42 7 -62 17 -15 20 -15 42 3 21 16 22 22
11 45 -12 28 -40 34 -60 14z"/>
<path d="M21632 4008 c-17 -17 -15 -42 6 -61 16 -15 20 -15 40 -1 35 24 23 74
-18 74 -9 0 -21 -5 -28 -12z"/>
<path d="M7811 3995 c4 -3 51 -10 105 -15 55 -5 128 -13 164 -16 37 -4 61 -3
57 2 -8 9 -96 19 -252 30 -43 3 -77 2 -74 -1z"/>
<path d="M8225 3950 c32 -4 68 -4 80 0 13 6 -9 8 -60 8 l-80 -1 60 -7z"/>
<path d="M8336 3940 c5 -4 43 -11 84 -14 88 -6 232 -21 309 -32 38 -5 52 -4
47 4 -3 6 -37 13 -74 16 -37 4 -103 11 -147 16 -121 15 -229 20 -219 10z"/>
<path d="M16356 3860 c-35 -11 -73 -45 -94 -85 -22 -42 -21 -141 2 -188 30
-61 69 -82 153 -82 85 0 115 17 151 86 30 57 26 148 -8 205 -38 60 -124 88
-204 64z m119 -53 c62 -62 58 -197 -6 -251 -33 -28 -55 -32 -92 -15 -40 18
-61 66 -61 139 0 75 20 121 62 144 41 23 61 19 97 -17z"/>
<path d="M16844 3851 c-18 -11 -40 -34 -50 -51 l-19 -32 -5 44 c-6 50 -22 57
-75 33 -41 -20 -44 -31 -10 -39 25 -6 25 -6 25 -131 0 -114 -2 -126 -20 -137
-34 -21 -23 -28 45 -28 l66 0 -17 32 c-22 43 -15 158 14 214 27 54 71 74 107
50 25 -16 25 -18 25 -156 l0 -140 45 0 c45 0 54 7 35 26 -17 17 -23 99 -10
159 13 64 61 125 97 125 41 0 51 -28 55 -161 4 -138 12 -159 57 -159 28 0 71
25 71 40 0 5 -13 7 -30 4 -16 -4 -31 -5 -31 -3 -1 2 -4 68 -8 146 -7 165 -13
178 -84 178 -47 0 -85 -24 -112 -69 l-18 -29 -12 37 c-15 42 -13 39 -42 55
-32 16 -64 14 -99 -8z"/>
<path d="M17455 3858 c-72 -25 -115 -93 -115 -181 0 -107 64 -177 163 -177 51
0 124 30 134 56 9 25 -3 26 -43 5 -56 -30 -106 -27 -146 8 -28 25 -32 35 -36
94 -5 77 10 129 45 157 34 27 69 25 98 -5 32 -31 32 -66 1 -102 -21 -24 -31
-28 -75 -27 -28 0 -51 -3 -51 -7 0 -15 39 -29 80 -29 52 0 96 22 115 60 54
104 -46 191 -170 148z"/>
<path d="M18010 3848 c-116 -59 -122 -250 -11 -325 56 -38 171 -26 211 22 23
27 0 35 -40 15 -101 -51 -180 7 -180 132 0 99 57 164 121 138 32 -14 45 -45
35 -90 -4 -25 -2 -30 13 -30 42 0 65 65 40 112 -13 24 -67 48 -112 48 -18 0
-53 -10 -77 -22z"/>
<path d="M18396 3860 c-68 -21 -107 -85 -108 -175 -1 -119 61 -185 173 -185
100 0 169 75 169 185 0 131 -109 212 -234 175z m113 -46 c71 -60 65 -231 -10
-269 -41 -22 -65 -19 -99 13 -32 29 -54 106 -44 153 16 68 28 92 58 110 41 25
59 24 95 -7z"/>
<path d="M18905 3860 c-21 -8 -53 -38 -80 -75 -13 -19 -14 -17 -15 28 0 41 -3
47 -21 47 -25 0 -89 -29 -89 -40 0 -4 11 -11 25 -14 25 -6 25 -6 25 -131 0
-114 -2 -126 -20 -137 -34 -21 -23 -28 44 -28 l65 0 -16 37 c-32 78 5 235 63
261 35 17 51 15 74 -8 18 -18 20 -33 20 -134 0 -140 8 -166 50 -166 31 0 80
25 80 41 0 5 -15 8 -32 7 l-33 -3 -5 138 c-5 137 -5 139 -33 163 -28 24 -65
30 -102 14z"/>
<path d="M19274 3859 c-41 -12 -91 -69 -100 -114 -26 -139 43 -245 160 -245
53 0 111 26 123 55 9 25 -1 26 -42 5 -102 -52 -175 3 -175 131 0 76 26 126 74
142 55 18 105 -49 76 -103 -9 -17 -8 -20 13 -20 53 0 76 76 36 119 -37 40 -95
50 -165 30z"/>
<path d="M19563 3853 c-38 -19 -43 -40 -10 -45 21 -3 22 -6 25 -142 1 -82 7
-145 14 -153 14 -18 59 -16 86 3 30 21 28 33 -5 31 l-28 -2 -5 160 c-5 151 -6
160 -25 162 -11 1 -35 -5 -52 -14z"/>
<path d="M19876 3860 c-38 -12 -85 -57 -102 -97 -22 -50 -18 -132 9 -183 27
-53 74 -80 140 -80 51 0 124 30 134 56 10 26 -6 28 -46 6 -55 -31 -103 -29
-143 7 -28 25 -32 35 -36 94 -5 77 10 129 45 157 35 27 69 25 100 -6 20 -20
24 -31 19 -57 -10 -51 -39 -72 -96 -71 -28 0 -50 -3 -50 -7 0 -15 39 -29 80
-29 109 0 169 106 102 181 -23 26 -37 32 -78 35 -27 2 -62 -1 -78 -6z"/>
<path d="M20311 3854 c-13 -9 -32 -35 -42 -58 l-19 -41 0 48 c0 56 -14 66 -67
46 -45 -17 -52 -35 -18 -43 l25 -6 0 -120 c0 -107 -2 -122 -20 -140 -11 -11
-20 -22 -20 -25 0 -3 29 -5 65 -5 l66 0 -16 30 c-31 60 -13 212 31 261 34 38
77 12 53 -33 -14 -25 -6 -32 26 -24 49 12 53 90 6 115 -27 15 -43 14 -70 -5z"/>
<path d="M20589 3861 c-79 -26 -121 -90 -122 -186 -1 -107 50 -162 141 -152
32 3 53 14 78 38 l34 33 0 -82 c0 -121 -27 -172 -93 -172 -51 0 -75 73 -41
125 16 24 16 25 -10 25 -80 0 -99 -127 -25 -165 41 -22 118 -19 157 5 61 38
72 79 72 293 0 104 4 196 10 206 8 16 5 20 -20 24 -59 12 -156 16 -181 8z
m112 -41 c17 -9 19 -22 19 -101 0 -89 -1 -92 -31 -120 -40 -38 -90 -39 -124
-4 -43 42 -36 161 12 209 28 28 86 36 124 16z"/>
<path d="M21006 3860 c-38 -12 -85 -57 -102 -97 -22 -50 -18 -132 9 -183 27
-53 74 -80 140 -80 51 0 124 30 134 56 9 25 -3 26 -46 5 -58 -30 -104 -27
-143 8 -28 25 -32 35 -36 94 -5 77 10 129 45 157 35 27 69 25 100 -6 20 -20
24 -31 19 -57 -10 -51 -39 -72 -96 -71 -28 0 -50 -3 -50 -7 0 -15 39 -29 80
-29 109 0 169 106 102 181 -23 26 -37 32 -78 35 -27 2 -62 -1 -78 -6z"/>
<path d="M21441 3854 c-13 -9 -32 -35 -42 -58 l-19 -41 0 48 c0 56 -14 66 -67
46 -45 -17 -52 -35 -18 -43 l25 -6 0 -120 c0 -107 -2 -122 -20 -140 -11 -11
-20 -22 -20 -25 0 -3 29 -5 65 -5 l66 0 -16 30 c-31 60 -13 212 31 261 34 38
77 12 53 -33 -14 -25 -6 -32 26 -24 49 12 53 90 6 115 -27 15 -43 14 -70 -5z"/>
<path d="M21613 3850 c-39 -24 -42 -40 -8 -40 l25 0 0 -136 c0 -74 5 -144 10
-155 15 -27 63 -25 97 6 l28 25 -35 -3 -35 -2 -5 160 c-5 151 -6 160 -25 163
-11 1 -35 -7 -52 -18z"/>
<path d="M21925 3858 c-72 -25 -115 -93 -115 -181 0 -107 64 -177 163 -177 51
0 124 30 134 56 9 25 -3 26 -43 5 -56 -30 -106 -27 -146 8 -28 25 -32 35 -36
94 -5 77 10 129 45 157 34 27 69 25 98 -5 32 -31 32 -66 1 -102 -21 -24 -31
-28 -75 -27 -28 0 -51 -3 -51 -7 0 -15 39 -29 80 -29 52 0 96 22 115 60 54
104 -46 191 -170 148z"/>
<path d="M1233 3666 c-32 -37 -41 -142 -23 -269 25 -172 32 -214 42 -254 10
-40 13 -43 45 -43 l34 0 -20 29 c-14 19 -23 51 -26 92 -2 35 -8 87 -11 114 -4
28 -7 87 -7 133 0 45 -4 82 -9 82 -5 0 -9 15 -9 33 0 52 -2 97 -3 97 -1 -1 -6
-7 -13 -14z"/>
<path d="M2342 3293 c-1 -223 1 -343 8 -343 11 0 12 412 0 580 -5 74 -7 3 -8
-237z"/>
<path d="M10059 3584 c-16 -19 -23 -82 -11 -98 5 -6 12 -21 15 -34 4 -17 2
-22 -8 -18 -10 4 -14 -20 -19 -107 -11 -217 -23 -823 -26 -1285 l0 -72 -45
-12 c-53 -14 -87 -42 -79 -63 4 -8 10 -15 15 -15 5 0 9 -6 9 -13 0 -7 10 -17
23 -22 14 -6 22 -18 21 -33 0 -16 6 -24 23 -28 13 -4 23 -11 23 -18 0 -6 7 -3
14 7 16 21 36 22 36 2 0 -20 13 -19 33 3 11 12 17 41 20 88 2 38 6 74 9 80 4
5 4 48 2 94 -5 89 12 283 26 311 5 10 4 21 -3 28 -8 8 -8 11 0 11 16 0 26 69
13 85 -10 12 -12 67 -9 240 2 100 -11 555 -17 570 -4 11 -16 30 -26 41 -11 12
-15 24 -10 27 10 7 7 91 -5 109 -4 7 -6 21 -5 30 3 14 -1 16 -15 11 -15 -5
-16 -4 -7 8 11 14 29 89 21 89 -3 0 -10 -7 -18 -16z m29 -1746 c-6 -18 -28
-21 -28 -4 0 9 7 16 16 16 9 0 14 -5 12 -12z m-78 -8 c0 -5 -7 -10 -15 -10 -8
0 -15 5 -15 10 0 6 7 10 15 10 8 0 15 -4 15 -10z"/>
<path d="M15356 3571 c-21 -23 -18 -49 7 -65 42 -27 73 43 31 70 -18 13 -23
12 -38 -5z"/>
<path d="M4333 3303 c9 -2 25 -2 35 0 9 3 1 5 -18 5 -19 0 -27 -2 -17 -5z"/>
<path d="M5053 3213 c9 -2 23 -2 30 0 6 3 -1 5 -18 5 -16 0 -22 -2 -12 -5z"/>
<path d="M5178 3193 c12 -2 30 -2 40 0 9 3 -1 5 -23 4 -22 0 -30 -2 -17 -4z"/>
<path d="M5878 3103 c6 -2 18 -2 25 0 6 3 1 5 -13 5 -14 0 -19 -2 -12 -5z"/>
<path d="M6043 3083 c9 -2 25 -2 35 0 9 3 1 5 -18 5 -19 0 -27 -2 -17 -5z"/>
<path d="M6183 3063 c9 -2 25 -2 35 0 9 3 1 5 -18 5 -19 0 -27 -2 -17 -5z"/>
<path d="M18605 2873 c-480 -29 -847 -77 -1220 -160 -394 -86 -895 -243 -895
-279 0 -20 49 -29 84 -15 17 6 103 36 191 66 1057 354 2379 441 3454 225 146
-30 181 -29 181 5 0 16 -4 17 -130 44 -232 48 -582 93 -880 111 -148 9 -658
11 -785 3z"/>
<path d="M83 2675 c-8 -22 6 -33 17 -15 13 20 12 30 0 30 -6 0 -13 -7 -17 -15z"/>
<path d="M165 2659 c-10 -15 3 -25 16 -12 7 7 7 13 1 17 -6 3 -14 1 -17 -5z"/>
<path d="M197 2638 c-15 -35 -16 -36 -53 -28 -20 5 -40 12 -43 17 -3 4 -28 9
-54 10 l-48 2 3 -32 c3 -36 -1 -35 263 -78 181 -29 385 -74 430 -94 17 -7 46
-16 65 -20 74 -13 120 -30 120 -43 0 -10 7 -12 21 -9 12 3 22 0 26 -9 5 -13 8
-12 24 2 17 16 19 16 25 0 3 -9 13 -15 22 -14 8 2 17 -3 19 -10 4 -9 -7 -12
-44 -8 -49 4 -97 13 -123 23 -8 3 -24 8 -35 10 -23 4 -65 19 -112 39 -17 8
-50 15 -72 17 -23 1 -41 5 -41 10 0 13 -30 7 -36 -7 -4 -10 -13 -12 -32 -7
-20 6 -26 13 -24 29 2 12 -2 22 -7 22 -6 0 -11 -9 -11 -19 0 -11 -3 -22 -7
-24 -5 -3 -57 6 -118 18 -60 13 -141 29 -180 36 -38 6 -73 17 -77 23 -10 15
-70 14 -85 -1 -7 -6 -13 -21 -13 -32 0 -18 6 -21 40 -21 21 0 49 -4 62 -10 13
-5 84 -14 158 -19 176 -13 422 -57 456 -83 14 -10 123 -25 252 -33 92 -7 102
-6 102 10 0 11 -5 15 -15 12 -8 -4 -17 -2 -20 3 -4 6 0 10 7 11 7 0 23 2 35 5
27 5 39 -12 23 -31 -7 -8 -9 -15 -4 -16 55 -5 89 -2 89 8 0 6 3 15 8 19 4 4 7
-5 7 -19 0 -21 5 -27 22 -27 29 0 138 -20 163 -31 64 -26 123 -39 181 -39 36
0 81 -7 102 -15 23 -10 92 -19 182 -25 80 -5 168 -14 195 -20 81 -18 189 -52
204 -64 8 -6 54 -11 103 -11 82 -1 91 -3 107 -24 16 -21 25 -23 97 -21 113 2
262 -15 314 -35 25 -10 71 -20 102 -22 45 -4 59 -9 63 -23 13 -40 233 -60 380
-36 l50 9 -30 -33 -30 -32 95 7 c128 9 295 -14 490 -66 116 -31 184 -43 270
-49 83 -5 139 -15 200 -35 271 -88 272 -88 336 -214 61 -119 83 -180 82 -236
0 -78 14 -143 49 -236 21 -55 29 -66 44 -62 10 3 19 3 19 1 0 -2 5 -30 11 -62
7 -42 7 -61 -1 -71 -9 -11 -7 -16 9 -25 31 -16 26 -31 -29 -114 -55 -80 -71
-90 -191 -121 -94 -24 -204 -63 -288 -101 -108 -50 -256 -94 -316 -94 -36 0
-115 -32 -168 -68 -25 -18 -52 -32 -60 -32 -15 0 -241 -111 -317 -156 -68 -40
-118 -55 -194 -58 -73 -2 -86 6 -66 43 22 42 -18 22 -74 -36 l-56 -58 122 -3
c134 -3 129 -4 290 72 53 25 104 46 112 46 8 0 18 5 21 10 3 5 19 10 36 10 16
0 29 5 29 10 0 6 5 10 11 10 20 0 -9 -27 -54 -50 -52 -27 -89 -47 -147 -83
l-45 -27 1806 0 1805 0 -9 63 c-11 79 -11 86 4 182 7 48 26 110 46 154 56 121
61 170 35 313 -5 27 -16 56 -25 66 -43 47 4 33 63 -19 30 -27 54 -39 75 -39
16 0 38 -7 48 -15 11 -7 25 -11 32 -8 8 2 22 0 31 -5 15 -9 15 -10 -6 -17 -23
-7 -23 -8 10 -19 30 -10 41 -10 72 6 23 11 39 14 43 8 3 -6 1 -10 -4 -10 -6 0
-11 -4 -11 -10 0 -5 12 -10 26 -10 19 0 25 4 20 15 -7 20 13 19 86 -1 33 -10
58 -22 58 -30 0 -20 17 -26 33 -10 12 12 24 13 76 3 33 -6 61 -15 61 -19 0 -5
5 -8 11 -8 15 0 9 634 -7 650 -9 9 -664 124 -669 117 -2 -1 15 -38 36 -82 21
-44 39 -83 39 -87 0 -4 -15 -2 -32 3 -18 5 -85 12 -148 15 -184 9 -268 44
-295 122 -35 102 -46 116 -99 129 -27 7 -53 10 -58 7 -5 -4 -6 -35 -3 -73 7
-71 65 -210 111 -264 36 -42 32 -78 -11 -101 -40 -22 -44 -32 -15 -41 26 -8
61 11 54 30 -4 8 -2 15 3 15 29 0 112 -145 94 -163 -7 -7 -16 -5 -30 7 -12 11
-21 14 -26 7 -9 -16 -25 -13 -19 3 3 8 -3 19 -13 25 -15 7 -22 5 -31 -10 -16
-25 -15 -32 3 -25 9 3 15 0 15 -8 0 -16 -63 -31 -68 -16 -2 5 -12 10 -23 10
-25 0 -25 30 1 37 11 3 20 14 20 24 0 17 -3 18 -20 7 -17 -11 -22 -10 -30 2
-11 18 -3 31 18 28 18 -3 27 24 18 49 -5 13 -9 14 -18 5 -18 -18 -38 -14 -38
7 0 22 31 81 43 81 4 0 7 6 7 14 0 23 -28 27 -43 6 -12 -18 -15 -18 -36 -4
-21 15 -21 17 -4 30 17 13 17 15 1 25 -10 5 -18 19 -18 30 0 11 -7 22 -16 26
-11 4 -14 14 -10 34 3 17 0 32 -9 39 -17 14 -1 46 27 53 27 8 26 77 -2 77 -37
0 -94 79 -57 80 6 0 -1 10 -17 22 l-28 21 22 12 23 12 -22 22 c-11 11 -21 27
-21 34 0 8 4 7 10 -3 8 -13 10 -13 10 1 0 19 -19 29 -58 30 -24 1 -23 3 16 20
43 20 51 36 30 57 -9 9 -9 15 -1 23 12 12 7 39 -8 39 -5 0 -9 -7 -9 -15 0 -26
-14 -16 -43 31 -32 54 -33 64 -8 64 11 0 23 5 27 11 10 16 -12 33 -33 25 -10
-4 -20 -7 -22 -7 -6 0 -31 74 -31 93 0 9 -10 20 -22 24 -21 6 -21 7 5 22 15 9
27 20 27 23 0 14 -33 19 -47 8 -11 -10 -22 -3 -58 35 -49 51 -69 57 -86 25 -9
-19 -8 -20 10 -14 16 5 24 -1 38 -27 9 -18 16 -37 15 -42 -5 -17 20 -37 33
-26 18 15 23 2 17 -48 -4 -45 -24 -54 -30 -13 -2 12 -10 25 -18 28 -8 3 -14
11 -14 19 0 7 -8 19 -18 26 -10 7 -21 21 -25 31 -3 9 -13 17 -22 17 -19 0 -20
-19 0 -26 24 -9 17 -24 -10 -24 -16 0 -25 -6 -25 -16 0 -8 4 -13 9 -9 5 3 12
1 16 -5 3 -5 17 -7 31 -4 14 4 24 2 24 -5 0 -6 -13 -12 -30 -12 -16 -1 -33 -3
-37 -4 -5 -2 -17 -6 -29 -10 -16 -5 -19 -13 -16 -36 3 -24 1 -28 -12 -23 -9 3
-16 17 -16 30 0 15 -6 24 -15 24 -8 0 -15 7 -15 15 0 9 8 14 23 12 14 -1 22 3
22 13 0 8 -10 16 -22 18 -13 2 -23 -1 -23 -6 0 -6 -9 -8 -20 -5 -21 6 -53 -14
-45 -27 2 -4 16 -5 30 -2 17 3 25 0 25 -10 0 -9 -13 -14 -39 -14 -33 -1 -40 2
-43 20 -3 18 -9 21 -45 18 -37 -2 -43 1 -43 17 0 21 -22 33 -45 25 -22 -9 -18
-19 7 -21 26 -2 44 -27 23 -31 -8 -2 -15 -11 -15 -19 0 -14 3 -13 21 3 16 15
22 16 29 5 11 -19 1 -43 -16 -37 -8 3 -14 0 -14 -7 1 -18 25 -47 41 -47 8 0
22 -12 32 -25 16 -22 16 -26 3 -31 -22 -8 -35 3 -29 26 3 11 0 20 -6 20 -6 0
-11 -10 -12 -22 0 -16 -2 -18 -6 -8 -10 24 -34 37 -59 32 -14 -3 -24 0 -24 8
0 7 8 9 20 5 15 -5 20 -2 20 13 0 11 -6 22 -13 25 -18 7 -68 -3 -88 -17 -15
-10 -15 -16 -2 -55 15 -44 11 -77 -7 -66 -6 3 -7 17 -4 31 4 17 1 26 -10 30
-9 3 -16 14 -16 25 0 21 -39 46 -49 31 -3 -5 -25 -13 -48 -17 -36 -6 -43 -4
-43 9 0 12 6 15 25 10 16 -4 25 -2 25 6 0 7 8 10 20 7 11 -3 23 -1 26 4 3 5
16 6 30 3 18 -5 24 -2 24 10 0 19 -24 31 -41 20 -7 -4 -30 -9 -53 -11 -22 -2
-44 -7 -49 -12 -5 -5 -16 -7 -23 -4 -8 3 -20 0 -28 -6 -7 -6 -20 -9 -29 -5 -8
3 -18 1 -22 -5 -3 -6 -15 -11 -26 -11 -10 0 -19 -4 -19 -9 0 -17 20 -23 34
-12 7 6 21 9 30 5 9 -3 23 -1 31 6 8 6 19 9 25 5 18 -11 11 -25 -15 -25 -14 0
-25 -5 -25 -11 0 -6 -6 -9 -12 -6 -15 5 -48 -10 -48 -22 0 -5 9 -11 20 -14 11
-3 20 -11 20 -17 0 -7 -8 -10 -20 -7 -11 3 -23 1 -26 -5 -3 -5 -12 -7 -20 -4
-7 3 -16 1 -19 -4 -11 -18 -35 -10 -35 11 0 18 2 20 16 8 13 -10 17 -10 24 1
5 8 7 17 4 21 -5 9 -94 7 -94 -2 0 -3 -45 -14 -101 -24 l-101 -19 6 -29 c3
-16 6 -35 6 -41 0 -9 44 -13 75 -6 6 1 17 2 27 1 9 -1 19 3 23 9 3 5 24 10 45
10 53 0 44 -26 -13 -36 -23 -4 -53 -9 -67 -11 -14 -3 -36 -5 -49 -5 -13 0 -40
-9 -60 -20 -19 -11 -51 -20 -71 -20 -19 0 -40 -4 -47 -10 -6 -5 -20 -8 -29 -6
-27 4 -30 -29 -4 -37 11 -4 26 -2 33 3 7 5 19 10 27 10 8 1 24 2 34 4 10 2 21
-3 23 -9 3 -8 -4 -13 -16 -13 -11 0 -22 -4 -25 -9 -3 -4 -17 -6 -31 -3 -15 2
-25 0 -25 -7 0 -6 -19 -11 -45 -11 -32 0 -45 4 -45 14 0 25 -29 41 -51 28 -27
-17 -39 -15 -39 9 0 12 -8 23 -20 26 -25 7 -27 35 -2 31 11 -2 18 4 20 20 3
16 -2 22 -16 22 -11 0 -25 -6 -32 -14 -13 -16 -39 -10 -56 13 -13 17 -44 8
-44 -13 0 -7 7 -16 15 -20 16 -6 21 -36 6 -36 -10 0 -100 46 -109 55 -8 7 19
35 34 35 7 0 14 -12 16 -27 l3 -28 22 35 22 35 -22 3 c-12 2 -27 8 -34 14 -7
5 -21 7 -32 3 -10 -3 -22 -1 -26 5 -10 17 -25 11 -36 -14 -7 -14 -17 -22 -25
-19 -10 4 -11 10 -4 23 13 24 13 40 0 40 -6 0 -15 -11 -20 -25 -11 -28 -40
-34 -40 -9 0 9 7 22 17 29 11 8 12 14 5 19 -6 4 -16 -4 -23 -16 -23 -43 -57
-50 -87 -18 -11 12 -26 18 -34 15 -24 -9 -34 16 -13 31 15 11 20 11 30 -3 8
-10 19 -14 30 -9 10 4 21 2 25 -4 4 -6 13 -5 26 5 18 14 18 14 -7 15 -15 0
-29 7 -33 15 -3 8 -12 12 -21 9 -8 -4 -22 -1 -30 6 -12 10 -18 10 -30 0 -9 -7
-14 -19 -11 -26 5 -12 -21 -34 -38 -34 -10 0 -6 39 4 45 6 3 10 13 10 21 0 8
-5 12 -11 9 -6 -4 -16 1 -24 11 -11 15 -15 16 -29 5 -8 -7 -18 -21 -21 -31 -9
-29 -78 -21 -85 10 -5 19 -7 21 -18 8 -17 -21 -86 -16 -90 6 -2 9 4 19 12 22
22 8 20 36 -1 32 -11 -2 -19 -14 -21 -31 -4 -34 -42 -40 -42 -6 0 21 0 21 -19
-2 -14 -18 -22 -21 -32 -13 -8 6 -30 11 -49 10 l-35 -2 4 44 c2 31 0 42 -8 38
-6 -4 -11 -18 -11 -31 0 -29 -38 -45 -54 -23 -6 7 -19 12 -28 10 -11 -2 -18 3
-18 12 0 19 -11 21 -28 4 -9 -9 -13 -7 -18 5 -3 9 1 24 10 33 9 8 14 20 11 24
-9 15 -34 0 -37 -23 -2 -18 -11 -23 -46 -25 -30 -2 -44 1 -48 12 -5 12 -9 13
-25 3 -13 -8 -22 -9 -27 -2 -8 12 -126 14 -138 3 -15 -16 -44 -7 -60 17 -12
19 -22 23 -40 19 -13 -3 -24 -2 -24 3 0 12 -158 45 -171 37 -5 -3 -12 1 -15
10 -3 8 -12 12 -20 9 -8 -3 -21 0 -29 7 -8 6 -19 9 -25 5 -6 -4 -17 -2 -24 4
-7 6 -21 9 -30 5 -9 -3 -16 -2 -16 3 0 11 -61 10 -79 -1 -7 -5 -11 1 -11 14 0
16 -4 20 -15 16 -8 -3 -22 -9 -30 -12 -10 -4 -15 0 -15 12 -1 16 -5 15 -25 -9
-20 -23 -26 -25 -31 -13 -4 11 -11 13 -23 7 -9 -5 -29 -7 -44 -4 -27 5 -27 6
-12 29 9 13 20 36 25 52 l10 27 -21 -27 c-22 -29 -54 -37 -63 -15 -3 8 -9 6
-20 -7 -15 -18 -16 -18 -16 -2 0 11 -6 16 -17 14 -11 -2 -18 -13 -18 -28 -1
-27 -19 -29 -59 -8 -15 8 -16 12 -5 18 8 6 17 2 25 -8 12 -16 13 -16 19 1 10
25 -2 54 -17 39 -7 -7 -22 -12 -35 -12 -14 0 -23 -6 -23 -15 0 -26 -19 -16
-22 13 l-4 27 -10 -24 c-10 -22 -11 -22 -28 -6 -13 13 -20 15 -29 6 -18 -18
-48 -13 -54 9 -5 20 -28 28 -35 11 -4 -10 -135 11 -166 28 -13 7 -33 11 -45 9
-12 -1 -28 1 -35 6 -8 5 -21 1 -32 -9 -20 -18 -40 -13 -40 10 0 18 -41 29 -75
21 -20 -5 -23 -3 -18 10 5 13 2 15 -16 9 -12 -4 -28 -2 -36 5 -7 6 -34 13 -60
15 -25 3 -55 10 -66 15 -15 9 -21 7 -25 -5 -6 -14 -8 -14 -19 2 -11 15 -16 16
-38 4 -26 -14 -52 -7 -42 10 4 5 3 19 -1 31 -6 21 -7 21 -21 3 -11 -16 -17
-17 -33 -7 -12 7 -21 8 -25 2 -3 -6 -10 -10 -16 -10 -13 0 -11 44 4 59 10 11
9 13 -3 9 -8 -3 -16 -14 -18 -26 -3 -22 -32 -32 -32 -11 0 7 -15 10 -41 7
l-41 -4 5 38 c6 46 2 47 -18 7 -14 -27 -20 -30 -43 -24 -74 20 -107 23 -132
10 -21 -11 -29 -11 -43 0 -10 7 -16 18 -15 25 4 16 -41 20 -50 5 -8 -13 -66
-27 -76 -18 -3 3 2 11 11 18 17 13 10 35 -12 35 -7 0 -16 -7 -19 -17 -6 -14
-8 -14 -21 3 -14 18 -14 18 -15 -3 0 -24 -9 -27 -47 -17 -35 9 -27 24 8 17 27
-5 31 -3 27 13 -2 10 -9 19 -16 18 -6 -1 -23 -2 -37 -2 -15 -1 -25 -8 -25 -18
0 -11 -6 -14 -22 -8 -13 4 -39 11 -58 16 -19 5 -42 11 -50 13 -8 2 -25 4 -37
4 -22 1 -34 31 -13 31 6 0 10 8 10 18 0 12 -9 17 -35 19 -25 1 -35 -3 -35 -13
0 -9 7 -14 17 -12 10 2 19 -4 21 -14 2 -11 -3 -18 -11 -18 -18 0 -47 32 -47
53 0 9 -5 17 -11 17 -7 0 -9 -10 -5 -25 8 -32 -18 -45 -42 -22 -14 15 -14 17
1 23 9 3 17 10 17 15 0 4 -17 -1 -38 -12 -32 -17 -42 -19 -67 -8 -17 7 -34 13
-40 13 -46 5 -145 31 -145 39 0 4 -9 5 -20 2 -24 -8 -28 22 -5 39 10 7 12 16
6 25 -7 11 -13 6 -24 -21z m1050 -340 c-3 -8 -6 -5 -6 6 -1 11 2 17 5 13 3 -3
4 -12 1 -19z m1409 -197 c-6 -9 -46 -3 -46 7 0 2 8 11 18 18 14 10 18 10 25
-2 4 -8 6 -18 3 -23z m3402 -140 c3 -8 -1 -12 -9 -9 -7 2 -15 10 -17 17 -3 8
1 12 9 9 7 -2 15 -10 17 -17z m402 -2 c0 -5 -7 -9 -15 -9 -15 0 -20 12 -9 23
8 8 24 -1 24 -14z m-100 -15 c0 -8 -5 -12 -10 -9 -6 4 -8 11 -5 16 9 14 15 11
15 -7z m-82 -12 c2 -7 -3 -12 -12 -12 -9 0 -16 7 -16 16 0 17 22 14 28 -4z
m-191 -38 c-2 -2 -12 -2 -21 2 -13 5 -14 9 -5 21 11 12 14 12 22 -2 5 -9 7
-19 4 -21z m49 9 c-7 -7 -26 7 -26 19 0 6 6 6 15 -2 9 -7 13 -15 11 -17z m44
17 c0 -5 -4 -10 -10 -10 -5 0 -10 5 -10 10 0 6 5 10 10 10 6 0 10 -4 10 -10z
m269 -64 c-2 -31 -2 -31 -6 -3 -2 15 -9 27 -14 27 -5 0 -9 10 -9 23 1 21 1 22
15 3 8 -11 14 -34 14 -50z m-106 39 c8 -18 -11 -31 -25 -17 -11 11 -3 32 12
32 4 0 10 -7 13 -15z m37 -5 c0 -5 -5 -10 -11 -10 -5 0 -7 5 -4 10 3 6 8 10
11 10 2 0 4 -4 4 -10z m-490 -15 c-12 -15 -30 -12 -30 6 0 5 10 9 21 9 18 0
19 -2 9 -15z m210 -21 c0 -14 -4 -23 -9 -20 -5 3 -7 15 -4 26 7 28 13 25 13
-6z m190 16 c0 -5 -4 -10 -10 -10 -5 0 -10 5 -10 10 0 6 5 10 10 10 6 0 10 -4
10 -10z m-1970 -29 c0 -23 -23 -34 -38 -19 -8 8 -7 15 6 24 24 18 32 17 32 -5z
m1480 -7 c13 -32 13 -44 0 -44 -5 0 -10 5 -10 11 0 16 -23 34 -44 34 -11 0
-21 6 -23 13 -3 8 7 12 31 12 30 0 38 -5 46 -26z m390 19 c0 -5 -14 -9 -30
-10 -17 -1 -30 2 -30 7 0 6 14 10 30 10 17 0 30 -3 30 -7z m-490 -19 c0 -11
-5 -14 -16 -10 -9 4 -23 1 -30 -5 -14 -12 -34 -4 -34 13 0 6 9 8 20 5 11 -3
23 -1 26 4 9 15 34 10 34 -7z m270 -4 c0 -5 -7 -10 -15 -10 -8 0 -15 5 -15 10
0 6 7 10 15 10 8 0 15 -4 15 -10z m430 0 c0 -5 -5 -10 -11 -10 -5 0 -7 5 -4
10 3 6 8 10 11 10 2 0 4 -4 4 -10z m-486 -9 c3 -4 3 -11 0 -14 -8 -8 -34 3
-34 14 0 11 27 12 34 0z m396 -11 c0 -5 -4 -10 -10 -10 -5 0 -10 5 -10 10 0 6
5 10 10 10 6 0 10 -4 10 -10z m-537 -26 c-4 -10 -9 -12 -15 -6 -12 12 -1 35
12 27 5 -3 6 -13 3 -21z m-348 -17 c-24 -4 -42 -4 -49 3 -7 7 -2 10 16 10 15
0 30 5 33 10 5 8 12 7 22 -2 13 -11 10 -14 -22 -21z m1100 23 c3 -5 1 -10 -4
-10 -6 0 -11 5 -11 10 0 6 2 10 4 10 3 0 8 -4 11 -10z m-801 -9 c7 -10 -54
-21 -69 -13 -8 5 14 14 57 21 4 0 9 -3 12 -8z m751 0 c3 -5 1 -12 -5 -16 -5
-3 -10 1 -10 9 0 18 6 21 15 7z m-1165 -32 c0 -5 -6 -9 -14 -9 -8 0 -22 -3
-31 -7 -16 -6 -16 -4 0 15 17 19 45 20 45 1z m55 11 c3 -5 -3 -10 -14 -10 -12
0 -21 5 -21 10 0 6 6 10 14 10 8 0 18 -4 21 -10z m215 -11 c0 -5 -7 -9 -15 -9
-15 0 -20 12 -9 23 8 8 24 -1 24 -14z m45 11 c3 -5 -1 -10 -10 -10 -9 0 -13 5
-10 10 3 6 8 10 10 10 2 0 7 -4 10 -10z m705 -22 c0 -5 -4 -8 -10 -8 -5 0 -10
10 -10 23 0 18 2 19 10 7 5 -8 10 -18 10 -22z m-480 1 c0 -5 -10 -9 -21 -9
-18 0 -19 2 -9 15 12 15 30 12 30 -6z m87 15 c-3 -3 -12 -4 -19 -1 -8 3 -5 6
6 6 11 1 17 -2 13 -5z m161 -21 c-3 -28 -28 -45 -28 -19 0 9 5 16 11 16 6 0 9
7 5 15 -3 8 -1 15 5 15 6 0 9 -12 7 -27z m-1434 -8 c3 -8 1 -15 -4 -15 -6 0
-10 7 -10 15 0 8 2 15 4 15 2 0 6 -7 10 -15z m876 11 c0 -11 -19 -15 -25 -6
-3 5 1 10 9 10 9 0 16 -2 16 -4z m204 -2 c18 -7 12 -24 -10 -24 -8 0 -14 7
-14 15 0 17 2 18 24 9z m486 -4 c0 -5 -2 -10 -4 -10 -3 0 -8 5 -11 10 -3 6 -1
10 4 10 6 0 11 -4 11 -10z m330 -4 c0 -2 -7 -6 -15 -10 -8 -3 -15 -1 -15 4 0
6 7 10 15 10 8 0 15 -2 15 -4z m-866 -27 c-3 -5 -10 -7 -15 -3 -5 3 -7 10 -3
15 3 5 10 7 15 3 5 -3 7 -10 3 -15z m220 -21 c-7 -11 -34 -10 -34 1 0 5 3 17
6 25 6 15 8 15 19 -1 7 -10 11 -21 9 -25z m76 26 c0 -8 -5 -12 -10 -9 -6 4 -8
11 -5 16 9 14 15 11 15 -7z m353 -27 c-9 -16 -24 9 -17 28 7 18 8 18 14 -1 4
-10 5 -23 3 -27z m107 22 c0 -5 -7 -9 -15 -9 -8 0 -15 7 -15 15 0 9 6 12 15 9
8 -4 15 -10 15 -15z m-810 -5 c0 -8 -5 -12 -10 -9 -6 4 -8 11 -5 16 9 14 15
11 15 -7z m410 6 c0 -5 -4 -10 -9 -10 -6 0 -13 5 -16 10 -3 6 1 10 9 10 9 0
16 -4 16 -10z m335 -10 c3 -5 -1 -10 -10 -10 -9 0 -13 5 -10 10 3 6 8 10 10
10 2 0 7 -4 10 -10z m-788 -6 c-3 -3 -12 -4 -19 -1 -8 3 -5 6 6 6 11 1 17 -2
13 -5z m693 -15 c0 -5 -4 -9 -10 -9 -5 0 -10 7 -10 16 0 8 5 12 10 9 6 -3 10
-10 10 -16z m-430 1 c0 -5 -7 -10 -15 -10 -8 0 -15 5 -15 10 0 6 7 10 15 10 8
0 15 -4 15 -10z m330 -6 c0 -8 -5 -12 -10 -9 -6 4 -8 11 -5 16 9 14 15 11 15
-7z m-683 0 c-3 -3 -12 -4 -19 -1 -8 3 -5 6 6 6 11 1 17 -2 13 -5z m303 2 c0
-3 -4 -8 -10 -11 -5 -3 -10 -1 -10 4 0 6 5 11 10 11 6 0 10 -2 10 -4z m260
-10 c0 -17 -14 -29 -23 -20 -8 8 3 34 14 34 5 0 9 -6 9 -14z m-353 -22 c-9 -9
-28 6 -21 18 4 6 10 6 17 -1 6 -6 8 -13 4 -17z m745 4 c-12 -12 -35 -1 -27 12
3 5 13 6 21 3 10 -4 12 -9 6 -15z m-1024 -15 c2 -15 10 -23 23 -23 10 0 19 -4
19 -8 0 -12 -71 -32 -114 -32 -30 0 -37 3 -34 18 3 16 32 21 67 11 22 -6 25
26 5 46 -16 16 -16 17 7 13 16 -2 25 -11 27 -25z m218 0 c-10 -10 -19 5 -10
18 6 11 8 11 12 0 2 -7 1 -15 -2 -18z m350 0 c-10 -10 -19 5 -10 18 6 11 8 11
12 0 2 -7 1 -15 -2 -18z m-775 7 c10 -6 19 -7 19 -2 0 11 94 9 98 -3 1 -5 -6
-11 -18 -13 -11 -2 -20 -7 -20 -12 0 -5 -13 -7 -30 -3 -31 6 -36 -1 -21 -26 6
-9 11 -10 15 -2 14 23 28 11 21 -19 -6 -25 -3 -31 17 -39 28 -11 38 -6 38 19
0 17 4 18 24 10 17 -6 26 -5 30 3 3 9 7 8 15 -3 9 -12 13 -12 19 -3 5 8 27 12
60 10 53 -2 77 -20 32 -24 -14 -1 -47 -6 -73 -12 -27 -6 -51 -10 -55 -9 -32 6
-56 -37 -27 -48 8 -4 15 -11 15 -18 0 -10 24 -23 73 -40 30 -10 8 -28 -32 -25
-20 1 -44 -2 -54 -6 -25 -10 -34 2 -19 26 12 18 11 21 -7 26 -16 4 -21 13 -21
38 0 35 -26 56 -36 30 -4 -8 -15 -15 -26 -15 -14 0 -18 5 -14 15 3 8 9 21 12
29 3 8 -3 15 -14 18 -15 4 -19 12 -15 31 4 19 0 27 -16 32 -12 3 -21 15 -21
26 0 22 4 23 31 9z m734 0 c3 -5 -1 -10 -9 -10 -9 0 -16 5 -16 10 0 6 4 10 9
10 6 0 13 -4 16 -10z m245 -31 c0 -10 -42 -19 -56 -11 -8 5 -9 15 -3 30 9 23
9 23 34 5 13 -10 25 -21 25 -24z m150 27 c0 -11 -19 -15 -25 -6 -3 5 1 10 9
10 9 0 16 -2 16 -4z m-845 -26 c3 -5 1 -10 -4 -10 -6 0 -11 5 -11 10 0 6 2 10
4 10 3 0 8 -4 11 -10z m208 -15 c-3 -9 -8 -14 -10 -11 -3 3 -2 9 2 15 9 16 15
13 8 -4z m72 8 c-11 -3 -23 -10 -27 -17 -5 -7 -8 -5 -8 7 0 12 7 17 28 16 21
-1 22 -2 7 -6z m333 -4 c-2 -6 -8 -10 -13 -10 -5 0 -11 4 -13 10 -2 6 4 11 13
11 9 0 15 -5 13 -11z m-98 -20 c0 -5 -4 -9 -10 -9 -5 0 -10 7 -10 16 0 8 5 12
10 9 6 -3 10 -10 10 -16z m50 11 c0 -5 -4 -10 -10 -10 -5 0 -10 5 -10 10 0 6
5 10 10 10 6 0 10 -4 10 -10z m405 0 c-3 -5 -10 -10 -16 -10 -5 0 -9 5 -9 10
0 6 7 10 16 10 8 0 12 -4 9 -10z m-558 -22 c-3 -8 -6 -5 -6 6 -1 11 2 17 5 13
3 -3 4 -12 1 -19z m57 7 c3 -9 0 -15 -9 -15 -8 0 -15 7 -15 15 0 8 4 15 9 15
5 0 11 -7 15 -15z m-359 -5 c3 -5 1 -10 -4 -10 -6 0 -11 5 -11 10 0 6 2 10 4
10 3 0 8 -4 11 -10z m263 -18 c6 -18 -15 -14 -22 4 -4 10 -1 14 6 12 6 -2 14
-10 16 -16z m400 -8 c-8 -8 -113 -7 -110 1 1 6 18 10 36 10 19 0 38 3 42 7 4
4 13 3 21 -4 7 -6 12 -12 11 -14z m-1076 -6 c-12 -12 -35 -1 -27 12 3 5 13 6
21 3 10 -4 12 -9 6 -15z m628 2 c0 -5 -7 -7 -15 -4 -8 4 -12 10 -9 15 6 11 24
2 24 -11z m-670 -11 c0 -5 -10 -9 -21 -9 -18 0 -19 2 -9 15 12 15 30 12 30 -6z
m995 -13 c9 -19 14 -40 10 -46 -10 -16 -27 0 -22 21 3 12 -2 23 -14 29 -22 13
-25 30 -4 30 8 0 21 -16 30 -34z m-1068 0 c-4 -13 -32 -20 -52 -12 -8 3 -12
11 -9 19 6 17 67 10 61 -7z m958 15 c7 -12 -12 -24 -25 -16 -11 7 -4 25 10 25
5 0 11 -4 15 -9z m45 -1 c0 -5 -5 -10 -11 -10 -5 0 -7 5 -4 10 3 6 8 10 11 10
2 0 4 -4 4 -10z m350 -10 c0 -5 -4 -10 -9 -10 -6 0 -13 5 -16 10 -3 6 1 10 9
10 9 0 16 -4 16 -10z m-805 -9 c3 -5 1 -12 -5 -16 -5 -3 -10 1 -10 9 0 18 6
21 15 7z m300 -6 c0 -5 -7 -10 -15 -11 -8 -1 -20 -3 -26 -5 -11 -4 -14 0 -14
19 0 4 12 7 27 6 16 0 28 -5 28 -9z m344 -15 c-8 -4 -34 -10 -57 -14 -33 -5
-43 -3 -40 6 3 7 13 13 23 13 10 0 20 5 22 12 3 9 12 9 35 1 21 -8 26 -13 17
-18z m101 20 c0 -5 -4 -10 -10 -10 -5 0 -10 5 -10 10 0 6 5 10 10 10 6 0 10
-4 10 -10z m-1152 -25 c3 -3 3 -7 1 -9 -9 -9 -152 -35 -160 -30 -16 9 -10 37
6 31 8 -4 17 -2 20 3 4 6 17 7 30 4 13 -3 26 0 30 6 7 11 61 7 73 -5z m322
-44 c0 -6 5 -11 10 -11 6 0 10 7 10 15 0 20 16 19 24 -2 9 -23 -2 -31 -56 -36
-49 -4 -64 6 -27 18 15 5 17 10 9 20 -7 8 -29 12 -65 10 -43 -3 -53 -1 -48 11
3 8 19 14 42 14 20 0 42 4 50 9 10 7 20 2 33 -14 10 -13 18 -28 18 -34z m300
34 c0 -9 -6 -12 -15 -9 -8 4 -12 10 -9 15 8 14 24 10 24 -6z m166 -6 c10 -17
-13 -36 -27 -22 -12 12 -4 33 11 33 5 0 12 -5 16 -11z m94 -6 c0 -9 -6 -13
-15 -10 -8 4 -17 2 -20 -3 -8 -12 -35 -1 -35 14 0 7 15 12 35 13 25 1 35 -3
35 -14z m-365 -3 c3 -5 1 -10 -4 -10 -6 0 -11 5 -11 10 0 6 2 10 4 10 3 0 8
-4 11 -10z m590 -11 c0 -8 -14 -19 -32 -24 -37 -12 -31 -30 11 -33 56 -4 50
-17 -11 -25 -40 -5 -43 -4 -43 19 0 24 -8 28 -43 24 -13 -1 -18 4 -15 17 3 14
13 18 56 17 39 -1 52 3 52 13 0 8 6 13 13 11 6 -3 12 -11 12 -19z m110 11 c3
-5 1 -10 -4 -10 -6 0 -11 5 -11 10 0 6 2 10 4 10 3 0 8 -4 11 -10z m-480 -30
c-5 -8 -11 -8 -17 -2 -6 6 -7 16 -3 22 5 8 11 8 17 2 6 -6 7 -16 3 -22z m425
14 c0 -8 -4 -12 -10 -9 -5 3 -10 10 -10 16 0 5 5 9 10 9 6 0 10 -7 10 -16z
m-735 -4 c3 -5 1 -10 -4 -10 -6 0 -11 5 -11 10 0 6 2 10 4 10 3 0 8 -4 11 -10z
m-635 -10 c0 -5 -2 -10 -4 -10 -3 0 -8 5 -11 10 -3 6 -1 10 4 10 6 0 11 -4 11
-10z m280 0 c0 -5 -7 -10 -16 -10 -8 0 -25 -5 -36 -11 -21 -11 -21 -12 -4 -25
11 -8 30 -11 47 -7 22 4 29 2 29 -11 0 -9 -8 -16 -17 -16 -13 0 -14 -3 -6 -11
6 -6 32 -11 57 -11 34 1 46 -3 46 -13 0 -8 -9 -15 -20 -15 -11 0 -20 -4 -20
-10 0 -17 57 -11 64 6 6 16 8 16 24 0 10 -9 24 -16 31 -16 17 0 8 -25 -10 -25
-37 -2 -110 -18 -115 -26 -3 -5 -10 -7 -15 -3 -17 10 -59 -5 -59 -21 0 -16 40
-21 56 -6 27 26 197 27 214 1 9 -13 59 -20 65 -9 4 5 -1 19 -12 31 -17 19 -17
20 0 17 10 -2 26 -16 35 -31 13 -22 13 -29 3 -42 -8 -9 -26 -16 -41 -16 -32 0
-43 -9 -30 -25 7 -9 23 -9 60 -1 56 11 71 4 47 -22 -22 -24 -21 -28 6 -37 14
-4 17 -8 9 -12 -7 -3 -22 3 -34 13 -15 14 -33 18 -71 17 -56 -3 -71 -11 -57
-33 8 -12 13 -13 30 -2 11 6 35 12 55 12 33 0 34 -1 29 -30 -6 -30 -6 -30 40
-30 32 0 45 -4 40 -11 -3 -6 -15 -9 -25 -6 -10 3 -22 1 -25 -4 -3 -5 -20 -9
-38 -9 -17 0 -36 -4 -42 -10 -5 -5 -39 -13 -74 -16 -36 -4 -72 -10 -81 -15 -9
-5 -20 -4 -26 2 -7 7 -15 5 -26 -5 -23 -23 -40 -20 -34 6 4 13 0 29 -8 38 -9
9 -11 21 -6 29 7 11 10 9 16 -8 8 -26 41 -46 50 -30 4 6 -1 16 -11 23 -20 15
-11 36 15 36 15 0 52 28 40 31 -34 7 -49 5 -82 -12 -30 -14 -44 -16 -54 -8
-21 18 -15 32 12 27 19 -4 26 0 34 21 5 14 10 21 10 14 1 -7 15 -9 44 -6 49 6
66 18 50 34 -8 8 -27 6 -68 -6 -42 -12 -61 -13 -69 -5 -13 13 5 28 47 37 30 6
31 30 1 25 -10 -1 -34 -4 -52 -6 -18 -2 -35 -6 -39 -10 -16 -16 -33 -4 -33 23
0 17 -6 31 -15 35 -10 4 -14 13 -10 28 4 17 -2 28 -19 40 -24 17 -25 17 -31
-2 -7 -22 -20 -26 -30 -10 -18 29 46 49 82 27 12 -8 26 20 17 35 -3 5 -18 8
-32 7 -43 -3 -137 49 -120 67 9 8 67 17 126 18 23 1 42 4 42 9 0 4 9 7 20 7
11 0 20 -4 20 -10z m573 -16 c-4 -10 -9 -12 -15 -6 -12 12 -1 35 12 27 5 -3 6
-13 3 -21z m42 16 c-3 -5 -10 -10 -16 -10 -5 0 -9 5 -9 10 0 6 7 10 16 10 8 0
12 -4 9 -10z m175 -53 c0 -10 5 -27 10 -38 8 -15 7 -19 -5 -19 -10 0 -15 10
-15 29 0 17 -4 33 -10 36 -5 3 -10 16 -10 28 0 20 0 20 15 1 8 -10 15 -27 15
-37z m-283 21 c-3 -8 -6 -5 -6 6 -1 11 2 17 5 13 3 -3 4 -12 1 -19z m373 12
c0 -5 -4 -10 -9 -10 -6 0 -13 5 -16 10 -3 6 1 10 9 10 9 0 16 -4 16 -10z
m-1130 -41 c0 -5 -4 -9 -10 -9 -5 0 -10 7 -10 16 0 8 5 12 10 9 6 -3 10 -10
10 -16z m471 -9 c13 -8 25 -7 39 0 12 6 33 10 48 8 18 -2 -3 -11 -64 -26 -106
-25 -104 -25 -104 -12 0 6 11 15 25 20 14 5 25 17 26 27 0 11 3 13 6 5 2 -7
13 -17 24 -22z m154 20 c3 -5 -1 -10 -10 -10 -9 0 -13 5 -10 10 3 6 8 10 10
10 2 0 7 -4 10 -10z m1005 0 c0 -5 -5 -10 -11 -10 -5 0 -7 5 -4 10 3 6 8 10
11 10 2 0 4 -4 4 -10z m-732 -39 c2 -18 -1 -38 -7 -44 -8 -8 -11 -2 -11 20 0
18 -4 35 -10 38 -17 10 -11 27 8 23 11 -2 18 -14 20 -37z m245 14 c-3 -8 -9
-15 -14 -15 -10 0 -12 24 -3 33 11 11 24 -3 17 -18z m47 9 c0 -8 -5 -12 -10
-9 -6 4 -8 11 -5 16 9 14 15 11 15 -7z m280 -10 c0 -8 -4 -14 -10 -14 -5 0
-10 9 -10 21 0 11 5 17 10 14 6 -3 10 -13 10 -21z m-683 -20 c-9 -9 -28 6 -21
18 4 6 10 6 17 -1 6 -6 8 -13 4 -17z m200 6 c16 -12 20 -20 11 -20 -8 0 -19 5
-25 11 -8 8 -13 5 -18 -11 -5 -16 -10 -19 -20 -10 -11 9 -12 16 -2 31 15 24
23 24 54 -1z m106 3 c-7 -2 -19 -2 -25 0 -7 3 -2 5 12 5 14 0 19 -2 13 -5z
m292 -34 c11 -10 25 -18 30 -19 6 0 10 -9 10 -21 0 -11 5 -23 11 -27 16 -10
74 -134 68 -144 -3 -4 -14 -8 -25 -8 -14 0 -19 -7 -19 -25 0 -14 -8 -29 -20
-35 -19 -10 -20 -9 -9 8 16 26 4 56 -19 47 -30 -11 -36 -10 -40 8 -2 10 2 17
12 17 9 0 16 -6 16 -12 0 -7 5 -5 11 5 5 9 19 17 30 17 34 0 16 25 -20 28 -29
3 -32 7 -29 27 6 31 -21 38 -53 14 l-24 -18 32 -7 c22 -4 30 -11 26 -21 -3 -8
-12 -12 -19 -9 -7 3 -16 0 -20 -5 -3 -6 -15 -9 -25 -6 -11 3 -23 -1 -27 -9 -7
-12 -11 -12 -27 0 -17 12 -17 15 -5 19 8 3 23 8 33 11 9 3 17 10 17 15 0 15
-30 22 -51 11 -15 -9 -21 -7 -25 5 -8 19 1 30 24 31 10 0 38 4 65 8 38 7 47
12 47 28 0 18 -4 19 -35 14 -32 -6 -35 -5 -35 18 0 14 -4 28 -10 31 -16 10
-12 19 13 31 25 11 59 1 92 -27z m-741 6 c3 -9 0 -15 -9 -15 -8 0 -15 7 -15
15 0 8 4 15 9 15 5 0 11 -7 15 -15z m-614 -5 c0 -5 -5 -10 -11 -10 -5 0 -7 5
-4 10 3 6 8 10 11 10 2 0 4 -4 4 -10z m1220 1 c0 -6 -4 -13 -10 -16 -5 -3 -10
1 -10 9 0 9 5 16 10 16 6 0 10 -4 10 -9z m-663 -7 c-3 -3 -12 -4 -19 -1 -8 3
-5 6 6 6 11 1 17 -2 13 -5z m213 -16 c0 -16 -3 -19 -11 -11 -6 6 -8 16 -5 22
11 17 16 13 16 -11z m40 7 c0 -8 -4 -15 -10 -15 -5 0 -10 7 -10 15 0 8 5 15
10 15 6 0 10 -7 10 -15z m320 -6 c0 -5 -4 -9 -10 -9 -5 0 -10 7 -10 16 0 8 5
12 10 9 6 -3 10 -10 10 -16z m56 4 c17 -23 18 -76 2 -70 -7 2 -13 15 -13 29 0
14 -6 32 -14 41 -10 13 -11 17 -1 17 7 0 19 -8 26 -17z m324 7 c0 -5 -2 -10
-4 -10 -3 0 -8 5 -11 10 -3 6 -1 10 4 10 6 0 11 -4 11 -10z m-1013 -17 c-11
-11 -67 -13 -67 -3 0 6 17 10 37 10 20 0 33 -3 30 -7z m168 -22 c-9 -16 -25
-3 -18 15 4 10 9 12 15 6 6 -6 7 -15 3 -21z m335 15 c0 -8 -4 -17 -9 -21 -12
-7 -24 12 -16 25 9 15 25 12 25 -4z m77 8 c-3 -3 -12 -4 -19 -1 -8 3 -5 6 6 6
11 1 17 -2 13 -5z m-452 -24 c3 -5 1 -10 -4 -10 -6 0 -11 5 -11 10 0 6 2 10 4
10 3 0 8 -4 11 -10z m286 -10 c5 0 9 -7 9 -15 0 -8 9 -15 20 -15 11 0 20 -6
20 -14 0 -23 -17 -28 -34 -11 -13 13 -15 13 -21 -5 -9 -29 -28 -25 -21 4 4 15
0 28 -9 36 -18 15 -9 34 12 26 8 -3 19 -6 24 -6z m329 0 c0 -5 -7 -10 -15 -10
-8 0 -15 5 -15 10 0 6 7 10 15 10 8 0 15 -4 15 -10z m-93 -26 c-9 -9 -28 6
-21 18 4 6 10 6 17 -1 6 -6 8 -13 4 -17z m383 16 c0 -5 -4 -10 -10 -10 -5 0
-10 5 -10 10 0 6 5 10 10 10 6 0 10 -4 10 -10z m-743 -20 c3 -11 9 -20 14 -20
5 0 9 -11 9 -25 0 -16 -6 -25 -16 -25 -12 0 -15 6 -10 25 5 18 2 27 -9 31 -17
7 -21 34 -4 34 6 0 13 -9 16 -20z m48 10 c-3 -5 -10 -10 -16 -10 -5 0 -9 5 -9
10 0 6 7 10 16 10 8 0 12 -4 9 -10z m263 -13 c2 -12 -1 -15 -12 -11 -19 7 -22
38 -3 32 6 -3 13 -12 15 -21z m372 13 c0 -5 -2 -10 -4 -10 -3 0 -8 5 -11 10
-3 6 -1 10 4 10 6 0 11 -4 11 -10z m-740 -26 c0 -8 -4 -12 -10 -9 -5 3 -10 10
-10 16 0 5 5 9 10 9 6 0 10 -7 10 -16z m328 -12 c3 -21 1 -22 -17 -13 -11 6
-29 11 -40 11 -12 0 -21 7 -21 16 0 12 9 14 38 12 30 -2 38 -7 40 -26z m107
-32 c-21 -23 -19 -73 4 -94 13 -12 21 -14 26 -6 4 6 13 9 21 6 7 -3 16 -1 19
4 13 20 62 11 79 -15 9 -14 23 -25 31 -25 13 0 13 -3 3 -20 -17 -27 -9 -30 50
-23 46 5 52 8 57 34 4 16 13 29 21 29 11 0 13 -4 5 -17 -7 -14 -4 -24 11 -40
16 -17 18 -23 7 -23 -8 0 -20 5 -25 10 -8 8 -15 6 -24 -5 -7 -8 -18 -15 -24
-15 -7 0 -21 -7 -32 -16 -18 -14 -15 -15 34 -11 39 3 52 1 52 -9 0 -8 -8 -14
-19 -14 -10 0 -25 -7 -32 -16 -11 -14 -10 -18 5 -30 11 -7 23 -11 27 -8 4 2
13 -5 19 -16 7 -13 21 -20 40 -20 40 0 60 -9 60 -29 0 -9 5 -22 12 -29 9 -9 5
-12 -20 -12 -32 0 -63 -13 -91 -38 -8 -8 -22 -11 -32 -9 -11 3 -22 1 -25 -4
-3 -6 -15 -7 -26 -3 -15 4 -19 2 -16 -7 6 -16 55 -19 80 -5 22 13 45 -7 57
-48 5 -17 10 -23 10 -13 1 13 6 17 20 12 11 -3 22 -1 26 5 3 5 19 10 36 10 25
0 29 -4 29 -29 0 -25 -4 -29 -32 -34 -18 -2 -38 -1 -44 4 -6 5 -14 6 -17 2 -4
-3 -20 -7 -37 -7 -27 -1 -30 2 -30 31 0 35 -16 51 -33 34 -9 -9 -9 -16 0 -29
14 -23 1 -47 -36 -67 -23 -12 -31 -12 -46 -1 -16 12 -16 13 -1 19 23 9 20 44
-4 50 -23 6 -27 27 -5 27 20 0 19 20 -1 34 -24 18 -7 44 29 45 64 1 127 13
127 25 0 28 -21 34 -73 20 -62 -17 -57 -16 -57 -4 0 6 6 10 14 10 8 0 17 7 20
15 7 20 -32 36 -56 24 -23 -12 -48 -1 -85 40 l-33 35 0 -27 c0 -15 -4 -27 -9
-27 -14 0 -26 22 -23 43 2 9 -4 20 -12 23 -19 7 -21 34 -3 34 7 0 18 -5 24
-11 18 -18 28 29 10 49 -21 24 -11 38 24 36 29 -2 30 -1 14 16 -13 14 -25 17
-53 13 -21 -4 -38 -10 -40 -15 -8 -19 -32 -6 -32 18 0 29 -25 60 -35 44 -3 -5
-15 -10 -27 -10 -17 0 -19 4 -13 27 9 37 15 41 26 20 6 -9 14 -17 19 -17 17 0
11 28 -7 39 -14 8 -15 12 -6 22 9 9 15 9 26 0 12 -9 16 -8 20 4 4 8 13 12 22
9 14 -6 14 -8 0 -24z m-419 -17 c-11 -11 -19 6 -11 24 8 17 8 17 12 0 3 -10 2
-21 -1 -24z m104 28 c0 -6 -4 -13 -10 -16 -5 -3 -10 1 -10 9 0 9 5 16 10 16 6
0 10 -4 10 -9z m-705 -12 c10 -15 -1 -23 -20 -15 -9 3 -13 10 -10 16 8 13 22
13 30 -1z m501 -34 c-8 -23 -25 -9 -19 16 4 13 9 17 16 10 5 -5 7 -17 3 -26z
m384 20 c0 -8 -7 -15 -15 -15 -16 0 -20 12 -8 23 11 12 23 8 23 -8z m-330 -5
c0 -5 -7 -10 -15 -10 -8 0 -15 5 -15 10 0 6 7 10 15 10 8 0 15 -4 15 -10z
m270 -10 c0 -5 -4 -10 -10 -10 -5 0 -10 5 -10 10 0 6 5 10 10 10 6 0 10 -4 10
-10z m-50 -10 c0 -5 -4 -10 -9 -10 -6 0 -13 5 -16 10 -3 6 1 10 9 10 9 0 16
-4 16 -10z m269 1 c7 -5 11 -14 7 -19 -9 -15 -36 -4 -36 14 0 16 9 18 29 5z
m368 -13 c-3 -8 -6 -5 -6 6 -1 11 2 17 5 13 3 -3 4 -12 1 -19z m763 -38 c0
-64 -15 -82 -22 -28 -5 29 8 88 18 88 2 0 4 -27 4 -60z m-2112 40 c17 0 15
-35 -2 -49 -11 -10 -16 -8 -21 7 -4 14 -12 18 -25 15 -15 -4 -18 -1 -13 17 4
16 11 20 27 16 11 -3 27 -6 34 -6z m656 -11 c-3 -5 -10 -7 -15 -3 -5 3 -7 10
-3 15 3 5 10 7 15 3 5 -3 7 -10 3 -15z m-44 7 c0 -3 -4 -8 -10 -11 -5 -3 -10
-1 -10 4 0 6 5 11 10 11 6 0 10 -2 10 -4z m1343 -22 c30 -30 77 -142 77 -184
0 -35 2 -34 -40 -14 -38 19 -78 100 -87 176 -7 57 9 64 50 22z m-1398 6 c3 -5
-1 -10 -9 -10 -9 0 -16 5 -16 10 0 6 4 10 9 10 6 0 13 -4 16 -10z m278 -16
c-7 -18 -33 -18 -33 -1 0 19 10 27 25 20 8 -2 11 -11 8 -19z m-329 1 c-5 -12
-10 -13 -20 -4 -19 15 -18 19 6 19 13 0 18 -5 14 -15z m-54 -17 c0 -16 -3 -19
-11 -11 -6 6 -8 16 -5 22 11 17 16 13 16 -11z m280 7 c0 -8 -7 -15 -15 -15
-16 0 -20 12 -8 23 11 12 23 8 23 -8z m40 5 c0 -5 -4 -10 -10 -10 -5 0 -10 5
-10 10 0 6 5 10 10 10 6 0 10 -4 10 -10z m680 -34 c0 -5 -9 -1 -20 9 -11 10
-17 22 -14 27 6 9 33 -20 34 -36z m-780 9 c0 -9 -6 -12 -15 -9 -8 4 -12 10 -9
15 8 14 24 10 24 -6z m121 -38 c-17 -17 -24 -1 -9 22 11 18 14 19 16 5 2 -9
-1 -21 -7 -27z m119 23 c0 -5 -5 -12 -11 -16 -14 -8 -33 11 -25 25 7 11 36 4
36 -9z m-935 1 c3 -5 1 -12 -5 -16 -5 -3 -10 1 -10 9 0 18 6 21 15 7z m585 -7
c0 -8 -5 -12 -10 -9 -6 4 -8 11 -5 16 9 14 15 11 15 -7z m-43 -20 c-9 -9 -28
6 -21 18 4 6 10 6 17 -1 6 -6 8 -13 4 -17z m1570 -17 c10 -24 13 -50 8 -73 -3
-20 -8 -34 -10 -32 -2 2 -13 36 -24 76 -18 64 -18 73 -4 70 8 -2 22 -20 30
-41z m-1112 0 c0 -26 -20 -25 -23 2 -3 16 1 22 10 19 7 -3 13 -12 13 -21z
m-238 7 c-3 -3 -12 -4 -19 -1 -8 3 -5 6 6 6 11 1 17 -2 13 -5z m-52 -14 c3 -5
-1 -10 -9 -10 -9 0 -16 5 -16 10 0 6 4 10 9 10 6 0 13 -4 16 -10z m-164 -33
c-8 -8 -11 -7 -11 4 0 20 13 34 18 19 3 -7 -1 -17 -7 -23z m389 1 c0 -12 -58
-10 -65 2 -12 20 5 28 35 17 17 -6 30 -15 30 -19z m-915 12 c3 -5 -1 -10 -10
-10 -9 0 -13 5 -10 10 3 6 8 10 10 10 2 0 7 -4 10 -10z m495 -30 c0 -4 -18 -7
-40 -6 -22 0 -39 5 -37 11 2 5 11 9 20 7 8 -1 18 2 22 8 7 11 35 -5 35 -20z
m320 9 c0 -5 -4 -9 -10 -9 -5 0 -10 7 -10 16 0 8 5 12 10 9 6 -3 10 -10 10
-16z m-60 -4 c0 -8 -4 -15 -10 -15 -5 0 -10 7 -10 15 0 8 5 15 10 15 6 0 10
-7 10 -15z m-102 -12 c-5 -25 -28 -28 -28 -4 0 12 6 21 16 21 9 0 14 -7 12
-17z m45 -9 c-4 -10 -9 -12 -15 -6 -12 12 -1 35 12 27 5 -3 6 -13 3 -21z
m-296 -3 c-3 -11 1 -25 9 -32 20 -16 17 -29 -5 -29 -11 0 -32 -5 -46 -10 -21
-8 -25 -13 -16 -24 11 -13 60 -10 134 9 21 6 27 4 27 -9 0 -9 -7 -16 -15 -16
-8 0 -15 -9 -15 -21 0 -16 4 -19 20 -14 12 4 20 2 20 -5 0 -11 -29 -25 -72
-34 -31 -7 -39 -36 -10 -36 11 0 24 -11 30 -25 6 -14 15 -25 19 -25 5 0 37 5
73 11 138 21 140 21 140 3 0 -12 -6 -15 -24 -10 -14 3 -28 1 -31 -5 -4 -6 -18
-8 -32 -5 -36 10 -47 -2 -28 -30 14 -21 14 -24 0 -24 -8 0 -15 6 -16 13 0 9
-2 10 -6 0 -7 -20 -23 -15 -23 6 0 27 -13 33 -49 20 -34 -12 -42 -39 -11 -39
11 0 20 -4 20 -10 0 -5 -4 -10 -8 -10 -5 0 -17 -7 -28 -15 -18 -14 -16 -15 22
-9 27 4 44 2 49 -5 5 -9 10 -9 21 0 15 12 49 5 40 -10 -3 -4 3 -19 14 -32 11
-12 19 -27 17 -32 -6 -19 -77 -38 -98 -26 -15 8 -20 6 -25 -8 -12 -38 -22 -48
-50 -51 -37 -3 -105 -23 -121 -35 -7 -5 -21 -6 -33 -2 -11 3 -20 2 -20 -4 0
-5 -9 -13 -20 -16 -24 -8 -70 18 -70 39 0 7 -10 20 -22 28 -26 17 -19 48 11
48 11 0 33 11 48 25 27 23 27 24 6 25 -27 0 -35 11 -23 30 7 12 13 13 28 4 15
-10 21 -8 30 7 7 10 19 19 27 19 25 0 95 24 95 33 0 10 -79 7 -101 -4 -20 -10
-39 8 -39 38 0 27 -8 29 -38 7 -24 -17 -42 -11 -42 13 0 11 7 14 26 10 31 -6
84 19 84 39 0 16 -21 19 -36 4 -8 -8 -15 -6 -23 4 -10 12 -8 17 9 26 27 14 21
35 -11 35 -19 0 -24 5 -24 26 0 14 -6 33 -13 42 -8 9 -11 21 -7 26 6 11 -33
24 -58 19 -9 -2 -15 2 -14 7 1 6 6 9 10 7 4 -1 26 7 49 18 23 11 52 20 64 20
13 0 25 3 27 8 3 4 40 8 82 10 73 3 77 2 72 -17z m543 -7 c0 -8 -7 -14 -15
-14 -15 0 -21 21 -9 33 10 9 24 -2 24 -19z m360 16 c0 -5 -4 -10 -10 -10 -5 0
-10 5 -10 10 0 6 5 10 10 10 6 0 10 -4 10 -10z m40 0 c0 -5 -4 -10 -10 -10 -5
0 -10 5 -10 10 0 6 5 10 10 10 6 0 10 -4 10 -10z m-460 -19 c0 -5 7 -17 16
-25 9 -10 11 -16 4 -16 -14 0 -40 25 -40 39 0 6 5 11 10 11 6 0 10 -4 10 -9z
m-340 -11 c0 -5 -7 -10 -15 -10 -8 0 -15 5 -15 10 0 6 7 10 15 10 8 0 15 -4
15 -10z m-87 -33 c-3 -5 -10 -4 -15 1 -6 6 -7 16 -3 22 6 9 9 9 16 -1 4 -7 5
-17 2 -22z m317 7 c0 -8 -4 -12 -10 -9 -5 3 -10 13 -10 21 0 8 5 12 10 9 6 -3
10 -13 10 -21z m50 16 c0 -5 -2 -10 -4 -10 -3 0 -8 5 -11 10 -3 6 -1 10 4 10
6 0 11 -4 11 -10z m142 -42 c-16 -16 -35 3 -26 26 6 16 8 16 22 2 13 -12 14
-18 4 -28z m-302 11 c0 -5 -7 -9 -15 -9 -9 0 -12 6 -9 15 6 15 24 11 24 -6z
m50 5 c0 -14 -3 -14 -15 -4 -8 7 -15 14 -15 16 0 2 7 4 15 4 8 0 15 -7 15 -16z
m590 1 c0 -8 -4 -15 -10 -15 -5 0 -10 7 -10 15 0 8 5 15 10 15 6 0 10 -7 10
-15z m760 -19 c0 -22 -27 -27 -33 -5 -4 14 0 19 14 19 10 0 19 -6 19 -14z
m-1510 -5 c0 -6 -4 -13 -10 -16 -5 -3 -10 1 -10 9 0 9 5 16 10 16 6 0 10 -4
10 -9z m990 -1 c0 -5 -7 -10 -16 -10 -8 0 -12 5 -9 10 3 6 10 10 16 10 5 0 9
-4 9 -10z m-760 -15 c0 -8 -4 -15 -10 -15 -5 0 -7 7 -4 15 4 8 8 15 10 15 2 0
4 -7 4 -15z m60 11 c0 -11 -19 -15 -25 -6 -3 5 1 10 9 10 9 0 16 -2 16 -4z
m190 -26 c-6 -12 -14 -20 -17 -17 -2 3 1 14 8 26 17 26 24 19 9 -9z m-905 -10
c-5 -8 -11 -8 -17 -2 -6 6 -7 16 -3 22 5 8 11 8 17 2 6 -6 7 -16 3 -22z m595
10 c0 -5 -4 -10 -10 -10 -5 0 -10 5 -10 10 0 6 5 10 10 10 6 0 10 -4 10 -10z
m205 -19 c-3 -12 -13 -21 -21 -21 -20 0 -17 38 4 42 23 6 25 3 17 -21z m-260
9 c3 -5 -1 -10 -9 -10 -9 0 -16 5 -16 10 0 6 4 10 9 10 6 0 13 -4 16 -10z
m315 -6 c0 -9 -5 -14 -12 -12 -18 6 -21 28 -4 28 9 0 16 -7 16 -16z m-370 -20
c0 -14 -3 -14 -15 -4 -8 7 -15 14 -15 16 0 2 7 4 15 4 8 0 15 -7 15 -16z m968
4 c15 -20 26 -148 12 -148 -6 0 -15 10 -20 23 l-9 22 -7 -22 c-11 -37 -21 -27
-33 34 -10 53 -10 58 11 80 25 26 32 28 46 11z m-773 -31 c11 -22 -5 -74 -18
-61 -3 4 -2 15 4 25 7 15 6 21 -6 25 -18 7 -20 34 -2 34 6 0 17 -10 22 -23z
m-655 -2 c0 -8 -4 -15 -9 -15 -13 0 -22 16 -14 24 11 11 23 6 23 -9z m585 5
c3 -5 -1 -10 -10 -10 -9 0 -13 5 -10 10 3 6 8 10 10 10 2 0 7 -4 10 -10z m-66
-29 c-15 -5 -22 6 -14 19 6 9 10 9 16 -1 5 -8 4 -15 -2 -18z m211 22 c-1 -11
-26 -43 -34 -43 -10 0 -7 25 6 38 13 13 28 16 28 5z m50 -15 c0 -16 -3 -19
-11 -11 -6 6 -8 16 -5 22 11 17 16 13 16 -11z m-858 -3 c0 -5 -5 -11 -11 -13
-6 -2 -11 4 -11 13 0 9 5 15 11 13 6 -2 11 -8 11 -13z m498 -10 c0 -8 -7 -15
-15 -15 -16 0 -20 12 -8 23 11 12 23 8 23 -8z m913 1 c3 -8 3 -17 0 -20 -9 -9
-34 15 -27 25 8 13 21 11 27 -5z m-374 -9 c12 -15 5 -27 -16 -27 -7 0 -13 9
-13 20 0 23 13 26 29 7z m307 -2 c1 -5 -16 -15 -38 -22 -33 -9 -41 -9 -55 5
-15 16 -15 17 13 22 45 8 79 6 80 -5z m-889 -1 c-3 -3 -12 -4 -19 -1 -8 3 -5
6 6 6 11 1 17 -2 13 -5z m520 -30 c-9 -9 -28 6 -21 18 4 6 10 6 17 -1 6 -6 8
-13 4 -17z m-170 -30 c-9 -9 -28 6 -21 18 4 6 10 6 17 -1 6 -6 8 -13 4 -17z
m223 -9 c0 -19 -46 -38 -71 -30 -11 4 -19 13 -19 21 0 17 26 19 36 3 5 -8 10
-6 16 5 11 20 38 21 38 1z m384 -10 c3 -8 1 -15 -4 -15 -6 0 -10 7 -10 15 0 8
2 15 4 15 2 0 6 -7 10 -15z m-494 -15 c0 -11 -4 -20 -9 -20 -11 0 -22 26 -14
34 12 12 23 5 23 -14z m-872 -8 c2 -7 -3 -12 -12 -12 -9 0 -16 7 -16 16 0 17
22 14 28 -4z m810 -15 c3 -15 -1 -17 -22 -11 -20 5 -26 2 -26 -10 0 -9 -5 -16
-11 -16 -6 0 -4 -9 5 -22 14 -19 14 -23 -2 -34 -27 -21 -34 -17 -31 19 1 17
-1 43 -5 56 -10 29 6 41 54 38 24 -1 36 -7 38 -20z m1055 -2 c9 -21 -9 -28
-27 -9 -21 20 -20 24 3 24 10 0 21 -7 24 -15z m-1770 -20 c-6 -16 -16 -19 -26
-8 -9 8 13 34 24 28 4 -3 6 -12 2 -20z m565 15 c14 0 22 -6 22 -17 0 -13 -3
-14 -12 -5 -32 32 -39 -3 -7 -37 24 -25 19 -51 -10 -51 -11 0 -27 -3 -36 -6
-11 -5 -18 0 -22 15 -4 17 -8 19 -19 10 -14 -12 -19 -3 -15 28 1 6 -3 14 -9
18 -16 10 -12 38 4 32 8 -3 20 1 27 9 7 9 21 13 33 10 12 -3 31 -6 44 -6z
m317 -9 c0 -23 -22 -24 -28 -1 -4 16 -1 20 11 18 9 -2 17 -10 17 -17z m-98
-43 c-3 -8 -6 -5 -6 6 -1 11 2 17 5 13 3 -3 4 -12 1 -19z m977 -21 c15 -24 -3
-35 -20 -13 -8 11 -14 24 -14 29 0 13 22 3 34 -16z m-1814 -23 c0 -2 -9 -4
-21 -4 -11 0 -18 4 -14 10 5 8 35 3 35 -6z"/>
<path d="M5177 1383 c-16 -15 -5 -30 19 -27 31 3 38 9 29 23 -7 12 -38 15 -48
4z"/>
<path d="M5254 1254 c3 -9 6 -18 6 -20 0 -2 7 -4 15 -4 8 0 15 5 15 10 0 6 7
10 16 10 8 0 12 5 9 10 -3 6 -20 10 -37 10 -23 0 -29 -4 -24 -16z"/>
<path d="M5516 1123 c-11 -11 -6 -23 9 -23 8 0 15 4 15 9 0 13 -16 22 -24 14z"/>
<path d="M5510 998 c-40 -9 -43 -11 -27 -23 11 -8 34 -11 60 -8 58 7 67 10 67
28 0 17 -31 18 -100 3z"/>
<path d="M6370 1285 c7 -8 23 -15 36 -15 17 0 22 4 18 15 -4 9 -19 15 -36 15
-26 0 -29 -2 -18 -15z"/>
<path d="M6403 926 c-26 -12 -29 -31 -10 -72 8 -21 20 -30 39 -31 32 -2 45 23
24 46 -9 9 -13 26 -10 37 7 26 -12 34 -43 20z m19 -51 c0 -5 -5 -11 -11 -13
-6 -2 -11 4 -11 13 0 9 5 15 11 13 6 -2 11 -8 11 -13z"/>
<path d="M5627 884 c-14 -14 -7 -25 13 -22 12 2 21 8 21 13 0 12 -24 18 -34 9z"/>
<path d="M5521 867 c-6 -8 -8 -17 -4 -20 10 -11 52 -8 75 4 17 9 18 13 7 20
-21 13 -65 11 -78 -4z"/>
<path d="M5537 803 c-13 -12 -7 -23 12 -23 28 0 52 11 45 21 -6 10 -48 12 -57
2z"/>
<path d="M5698 773 c-20 -5 -25 -25 -5 -22 6 1 20 -1 30 -6 21 -9 43 7 33 24
-7 11 -27 12 -58 4z"/>
<path d="M5610 734 c0 -17 22 -14 28 4 2 7 -3 12 -12 12 -9 0 -16 -7 -16 -16z"/>
<path d="M5705 641 c-7 -12 12 -24 25 -16 11 7 4 25 -10 25 -5 0 -11 -4 -15
-9z"/>
<path d="M5638 613 c6 -2 18 -2 25 0 6 3 1 5 -13 5 -14 0 -19 -2 -12 -5z"/>
<path d="M5565 480 c4 -6 11 -8 16 -5 14 9 11 15 -7 15 -8 0 -12 -5 -9 -10z"/>
<path d="M5995 520 c3 -5 8 -10 11 -10 2 0 4 5 4 10 0 6 -5 10 -11 10 -5 0 -7
-4 -4 -10z"/>
<path d="M240 2640 c0 -5 4 -10 9 -10 6 0 13 5 16 10 3 6 -1 10 -9 10 -9 0
-16 -4 -16 -10z"/>
<path d="M360 2615 c-9 -11 -10 -19 -3 -26 7 -7 14 -5 23 6 9 11 10 19 3 26
-7 7 -14 5 -23 -6z"/>
<path d="M320 2604 c0 -8 5 -12 10 -9 6 3 10 10 10 16 0 5 -4 9 -10 9 -5 0
-10 -7 -10 -16z"/>
<path d="M404 2606 c-8 -22 3 -33 18 -18 9 9 9 15 0 24 -9 9 -13 7 -18 -6z"/>
<path d="M446 2591 c-4 -7 -5 -15 -2 -18 9 -9 19 4 14 18 -4 11 -6 11 -12 0z"/>
<path d="M150 2509 c0 -5 5 -7 10 -4 6 3 10 8 10 11 0 2 -4 4 -10 4 -5 0 -10
-5 -10 -11z"/>
<path d="M1045 2509 c-4 -6 -5 -12 -2 -15 2 -3 7 2 10 11 7 17 1 20 -8 4z"/>
<path d="M1130 2485 c0 -8 2 -15 4 -15 2 0 6 7 10 15 3 8 1 15 -4 15 -6 0 -10
-7 -10 -15z"/>
<path d="M400 2465 c-10 -12 -10 -15 4 -15 9 0 16 7 16 15 0 8 -2 15 -4 15 -2
0 -9 -7 -16 -15z"/>
<path d="M440 2451 c-7 -15 -7 -21 0 -21 12 0 25 28 17 36 -3 3 -10 -4 -17
-15z"/>
<path d="M1255 2460 c-3 -5 -1 -10 4 -10 6 0 11 5 11 10 0 6 -2 10 -4 10 -3 0
-8 -4 -11 -10z"/>
<path d="M1385 2431 c-6 -11 9 -23 19 -14 9 9 7 23 -3 23 -6 0 -12 -4 -16 -9z"/>
<path d="M1513 2395 c-3 -9 -3 -19 1 -22 7 -7 36 16 36 28 0 15 -30 10 -37 -6z"/>
<path d="M1610 2375 c0 -9 6 -12 15 -9 8 4 15 10 15 15 0 5 -7 9 -15 9 -8 0
-15 -7 -15 -15z"/>
<path d="M1713 2373 c-7 -3 -13 -12 -13 -21 0 -15 2 -15 17 1 18 18 16 27 -4
20z"/>
<path d="M16845 2339 c-29 -35 -69 -112 -105 -202 -12 -32 -26 -55 -30 -50 -4
4 -15 49 -24 98 -10 50 -19 98 -22 108 -6 21 -34 23 -34 2 0 -35 42 -270 52
-288 15 -29 30 -7 68 98 29 80 76 178 118 243 21 32 8 27 -23 -9z"/>
<path d="M17033 2363 c-7 -3 -13 -15 -13 -28 0 -38 -11 -56 -44 -71 -26 -11
-27 -13 -9 -14 12 0 24 -4 27 -9 3 -5 0 -56 -6 -113 -6 -57 -8 -113 -4 -123 6
-18 8 -18 24 -1 13 13 17 35 18 94 1 125 10 159 52 188 l37 26 -32 -7 c-30 -6
-32 -5 -35 28 -2 22 -7 32 -15 30z"/>
<path d="M17911 2351 c-10 -10 -24 -42 -31 -71 -9 -37 -18 -54 -32 -58 -17 -4
-17 -6 -2 -16 15 -11 15 -21 -5 -123 -25 -130 -25 -143 -7 -143 18 0 31 41 47
145 16 105 22 121 58 140 17 8 36 25 42 36 10 19 8 19 -23 -5 -19 -14 -38 -26
-41 -26 -10 0 -8 35 3 65 8 22 13 25 24 16 19 -16 30 2 22 35 -8 29 -29 31
-55 5z"/>
<path d="M18303 2363 c-7 -3 -13 -15 -13 -28 0 -38 -11 -56 -44 -71 -26 -11
-27 -13 -9 -14 12 0 24 -4 27 -9 3 -5 0 -56 -6 -113 -6 -57 -8 -113 -4 -123 6
-18 8 -18 24 -1 13 13 17 35 18 94 1 125 10 159 52 188 l37 26 -32 -7 c-30 -6
-32 -5 -35 28 -2 22 -7 32 -15 30z"/>
<path d="M18852 2358 c-7 -7 -12 -27 -12 -45 0 -28 -5 -35 -32 -47 -27 -12
-29 -15 -11 -15 30 -1 32 -8 23 -66 -24 -158 -20 -214 13 -186 19 15 31 62 18
70 -6 4 -6 36 1 91 9 80 12 87 46 118 36 33 36 33 10 27 -27 -7 -28 -5 -28 29
0 38 -8 44 -28 24z"/>
<path d="M20052 2358 c-7 -7 -12 -23 -12 -37 0 -34 -9 -47 -40 -56 l-25 -9 23
-5 c13 -3 24 -8 24 -11 1 -3 -4 -55 -11 -117 -14 -121 -11 -139 18 -123 22 11
37 60 22 70 -8 4 -8 31 0 91 10 78 13 86 47 117 36 33 36 33 10 27 -26 -7 -28
-5 -28 23 0 35 -11 47 -28 30z"/>
<path d="M1887 2333 c-4 -3 -7 -11 -7 -17 0 -6 5 -5 12 2 6 6 9 14 7 17 -3 3
-9 2 -12 -2z"/>
<path d="M1831 2314 c0 -11 3 -14 6 -6 3 7 2 16 -1 19 -3 4 -6 -2 -5 -13z"/>
<path d="M1925 2319 c-4 -6 -5 -13 -2 -16 7 -7 27 6 27 18 0 12 -17 12 -25 -2z"/>
<path d="M20213 2306 c-61 -25 -71 -34 -51 -41 18 -7 128 40 128 54 0 15 -17
12 -77 -13z"/>
<path d="M1967 2313 c-4 -3 -7 -12 -7 -20 0 -11 5 -11 20 -3 11 6 20 15 20 20
0 11 -23 13 -33 3z"/>
<path d="M2010 2290 c0 -5 5 -10 10 -10 6 0 10 5 10 10 0 6 -4 10 -10 10 -5 0
-10 -4 -10 -10z"/>
<path d="M2047 2293 c-13 -12 -7 -24 11 -21 9 1 22 0 27 -4 6 -4 17 -3 25 3
12 7 10 9 -7 9 -13 0 -23 5 -23 10 0 11 -23 14 -33 3z"/>
<path d="M2131 2266 c-8 -9 -11 -19 -7 -23 9 -9 29 13 24 27 -2 8 -8 7 -17 -4z"/>
<path d="M19580 2254 c0 -9 5 -14 12 -12 18 6 21 28 4 28 -9 0 -16 -7 -16 -16z"/>
<path d="M19930 2254 c0 -9 5 -14 12 -12 18 6 21 28 4 28 -9 0 -16 -7 -16 -16z"/>
<path d="M2220 2240 c0 -5 7 -10 15 -10 8 0 15 5 15 10 0 6 -7 10 -15 10 -8 0
-15 -4 -15 -10z"/>
<path d="M2265 2239 c-4 -6 -5 -13 -2 -16 7 -7 27 6 27 18 0 12 -17 12 -25 -2z"/>
<path d="M6155 2230 c3 -5 8 -10 11 -10 2 0 4 5 4 10 0 6 -5 10 -11 10 -5 0
-7 -4 -4 -10z"/>
<path d="M2355 2219 c-10 -15 3 -25 16 -12 7 7 7 13 1 17 -6 3 -14 1 -17 -5z"/>
<path d="M6240 2220 c0 -5 10 -10 23 -10 18 0 19 2 7 10 -19 13 -30 13 -30 0z"/>
<path d="M6340 2205 c0 -8 5 -15 10 -15 6 0 10 7 10 15 0 8 -4 15 -10 15 -5 0
-10 -7 -10 -15z"/>
<path d="M17174 2184 c-27 -35 -29 -35 -38 -15 -22 50 -43 10 -52 -100 -7 -76
-6 -83 9 -71 8 7 22 32 30 56 22 65 64 126 82 120 10 -4 15 0 15 10 0 9 0 19
1 23 2 22 -23 10 -47 -23z"/>
<path d="M18180 2188 c-28 -30 -32 -31 -41 -15 -5 9 -14 17 -19 17 -19 0 -48
-184 -31 -195 6 -3 31 38 56 90 39 82 49 95 65 90 16 -5 20 -2 20 19 0 34 -13
33 -50 -6z"/>
<path d="M19001 2188 c-30 -32 -31 -32 -45 -13 -22 30 -33 10 -46 -84 -14
-104 -1 -129 30 -57 11 26 20 49 20 51 0 2 12 25 27 50 21 33 32 43 45 39 14
-4 18 0 18 20 0 34 -13 33 -49 -6z"/>
<path d="M19493 2184 c-26 -35 -28 -35 -37 -15 -22 50 -42 12 -52 -98 -8 -101
2 -101 47 -3 43 96 57 116 73 102 10 -8 15 -5 19 12 13 49 -13 50 -50 2z"/>
<path d="M19844 2183 c-26 -34 -28 -35 -35 -15 -5 12 -13 22 -19 22 -16 0 -27
-38 -35 -123 -6 -65 -5 -76 7 -72 8 3 22 27 31 52 10 26 29 67 43 91 20 34 28
41 39 32 10 -9 15 -6 20 9 7 22 0 41 -14 41 -5 0 -21 -16 -37 -37z"/>
<path d="M2750 2174 c0 -8 5 -12 10 -9 6 3 10 10 10 16 0 5 -4 9 -10 9 -5 0
-10 -7 -10 -16z"/>
<path d="M6280 2186 c0 -2 9 -6 20 -9 11 -3 20 -1 20 4 0 5 -9 9 -20 9 -11 0
-20 -2 -20 -4z"/>
<path d="M17239 2145 c-13 -30 -19 -61 -17 -92 4 -59 24 -74 64 -47 l29 19
-28 3 c-39 5 -44 28 -15 60 55 58 60 102 13 102 -21 0 -30 -8 -46 -45z m61 13
c0 -19 -18 -43 -25 -36 -9 9 4 48 16 48 5 0 9 -6 9 -12z"/>
<path d="M19076 2168 c-22 -35 -38 -106 -31 -138 7 -33 35 -46 65 -30 28 15
25 30 -5 30 -28 0 -35 29 -12 52 27 28 47 63 47 85 0 31 -44 32 -64 1z m54 -6
c0 -12 -28 -48 -33 -42 -8 8 11 50 23 50 5 0 10 -4 10 -8z"/>
<path d="M19333 2175 c-14 -10 -24 -11 -28 -5 -3 5 -12 10 -18 10 -9 0 -19
-48 -32 -147 -23 -173 -23 -175 -9 -180 7 -2 16 22 24 64 17 96 19 101 41 108
26 9 46 40 57 92 13 56 -2 81 -35 58z m18 -66 c-12 -38 -14 -40 -29 -26 -15
15 -14 20 2 53 12 27 20 34 28 26 8 -8 8 -22 -1 -53z"/>
<path d="M20136 2165 c-9 -14 -21 -46 -25 -72 -14 -75 12 -118 58 -93 29 15
26 30 -4 30 -34 0 -32 22 5 68 16 20 31 48 32 62 4 37 -43 41 -66 5z m54 -9
c0 -7 -7 -19 -15 -26 -16 -13 -20 -3 -9 24 8 20 24 21 24 2z"/>
<path d="M6240 2171 c0 -11 26 -22 34 -14 3 3 3 10 0 14 -7 12 -34 11 -34 0z"/>
<path d="M2893 2155 c-9 -10 -9 -16 -2 -20 14 -9 22 0 17 18 -2 13 -5 13 -15
2z"/>
<path d="M16903 2149 c8 -29 -10 -104 -29 -120 -24 -20 -29 20 -10 74 19 52
16 68 -9 47 -25 -21 -38 -86 -23 -118 18 -36 37 -34 65 7 25 37 32 114 11 127
-8 5 -9 0 -5 -17z"/>
<path d="M17474 2158 c-36 -16 -55 -79 -38 -122 8 -20 48 -21 64 -1 11 13 9
15 -11 13 -19 -2 -25 2 -27 24 -4 35 15 71 34 64 8 -3 14 1 14 9 0 20 -12 24
-36 13z"/>
<path d="M17624 2120 c0 -29 -8 -59 -19 -76 l-18 -28 -10 22 c-8 18 -6 35 11
73 18 45 19 50 4 47 -23 -4 -42 -46 -42 -94 0 -71 44 -82 74 -19 16 34 22 110
9 118 -5 3 -8 -17 -9 -43z"/>
<path d="M17687 2163 c-3 -5 -7 -35 -8 -67 -5 -78 11 -83 53 -15 l33 53 6 -65
c3 -35 6 -53 7 -39 1 14 5 49 8 78 8 63 -7 69 -48 20 l-27 -33 -1 38 c0 34
-12 49 -23 30z"/>
<path d="M18041 2137 c-1 -49 -27 -110 -43 -104 -16 5 -12 51 8 91 17 36 17
36 -2 36 -18 0 -44 -57 -44 -98 0 -15 6 -36 13 -46 35 -48 99 63 77 134 -7 22
-8 21 -9 -13z"/>
<path d="M18516 2155 c-3 -9 -6 -41 -6 -71 0 -70 18 -71 54 -4 15 28 30 50 34
50 4 0 6 -30 5 -67 -1 -68 -1 -68 7 -18 13 80 12 115 -4 115 -8 0 -23 -13 -32
-29 -20 -34 -37 -31 -32 7 3 29 -16 42 -26 17z"/>
<path d="M18731 2134 c-1 -53 -19 -104 -37 -104 -19 0 -18 57 1 90 19 32 18
40 -1 40 -18 0 -44 -58 -44 -99 0 -16 7 -37 16 -46 14 -14 19 -14 37 -2 31 20
52 91 39 130 l-10 32 -1 -41z"/>
<path d="M19544 2123 c-18 -123 1 -153 28 -46 22 86 22 93 -1 93 -16 0 -21
-10 -27 -47z"/>
<path d="M19705 2150 c8 -26 -12 -105 -31 -121 -24 -20 -28 34 -5 86 19 42 19
46 3 43 -37 -7 -60 -115 -30 -145 20 -19 44 -7 62 32 18 38 21 111 5 121 -8 4
-9 -1 -4 -16z"/>
<path d="M19905 2158 c-2 -7 -9 -41 -15 -76 -11 -60 -6 -93 10 -75 10 9 40
122 40 147 0 19 -29 22 -35 4z"/>
<path d="M2980 2135 c-10 -12 -10 -15 3 -15 8 0 17 7 21 15 3 8 2 15 -3 15 -5
0 -14 -7 -21 -15z"/>
<path d="M6434 2129 c-3 -6 -1 -16 5 -22 8 -8 11 -5 11 11 0 24 -5 28 -16 11z"/>
<path d="M6155 2110 c-3 -5 1 -10 10 -10 9 0 13 5 10 10 -3 6 -8 10 -10 10 -2
0 -7 -4 -10 -10z"/>
<path d="M8801 2083 c-1 -12 4 -25 9 -28 12 -7 12 2 0 30 -8 19 -9 19 -9 -2z"/>
<path d="M6145 2071 c-8 -15 3 -31 21 -31 9 0 14 7 12 17 -4 20 -24 28 -33 14z"/>
<path d="M6190 2072 c0 -5 9 -12 21 -15 13 -3 19 -1 16 6 -5 15 -37 22 -37 9z"/>
<path d="M3307 2063 c-4 -3 -7 -13 -7 -21 0 -12 3 -12 15 -2 8 7 15 16 15 21
0 11 -14 12 -23 2z"/>
<path d="M3367 2063 c-12 -11 -8 -23 8 -23 8 0 15 7 15 15 0 16 -12 20 -23 8z"/>
<path d="M5818 2053 c7 -3 16 -2 19 1 4 3 -2 6 -13 5 -11 0 -14 -3 -6 -6z"/>
<path d="M6060 2051 c0 -6 5 -13 10 -16 6 -3 10 1 10 9 0 9 -4 16 -10 16 -5 0
-10 -4 -10 -9z"/>
<path d="M6010 2040 c0 -5 5 -10 10 -10 6 0 10 5 10 10 0 6 -4 10 -10 10 -5 0
-10 -4 -10 -10z"/>
<path d="M3560 2004 c0 -14 3 -14 15 -4 8 7 15 14 15 16 0 2 -7 4 -15 4 -8 0
-15 -7 -15 -16z"/>
<path d="M5610 2005 c0 -8 2 -15 4 -15 2 0 6 7 10 15 3 8 1 15 -4 15 -6 0 -10
-7 -10 -15z"/>
<path d="M18361 1989 c-13 -38 -14 -49 -3 -49 10 0 32 45 32 65 0 26 -18 16
-29 -16z"/>
<path d="M3665 2000 c-3 -5 1 -10 9 -10 9 0 16 5 16 10 0 6 -4 10 -9 10 -6 0
-13 -4 -16 -10z"/>
<path d="M5755 2000 c-4 -6 3 -10 14 -10 25 0 27 6 6 13 -8 4 -17 2 -20 -3z"/>
<path d="M5715 1990 c3 -5 8 -10 11 -10 2 0 4 5 4 10 0 6 -5 10 -11 10 -5 0
-7 -4 -4 -10z"/>
<path d="M3810 1960 c0 -23 10 -26 28 -8 18 18 15 28 -8 28 -13 0 -20 -7 -20
-20z"/>
<path d="M3925 1949 c-10 -15 3 -25 16 -12 7 7 7 13 1 17 -6 3 -14 1 -17 -5z"/>
<path d="M3971 1936 c-8 -10 -9 -16 -1 -21 5 -3 13 1 16 10 9 22 -1 29 -15 11z"/>
<path d="M4123 1913 c-7 -2 -13 -12 -13 -20 0 -10 6 -13 16 -9 9 3 18 6 20 6
2 0 4 7 4 15 0 15 -6 17 -27 8z"/>
<path d="M4233 1893 c-14 -5 -18 -33 -5 -33 4 0 14 5 22 10 17 11 2 30 -17 23z"/>
<path d="M4435 1890 c-3 -5 1 -10 9 -10 9 0 16 5 16 10 0 6 -4 10 -9 10 -6 0
-13 -4 -16 -10z"/>
<path d="M5452 1878 c6 -18 28 -21 28 -4 0 9 -7 16 -16 16 -9 0 -14 -5 -12
-12z"/>
<path d="M5395 1870 c-3 -5 -15 -10 -26 -10 -10 0 -19 -4 -19 -9 0 -13 73 -10
82 3 4 6 2 14 -5 18 -16 10 -25 10 -32 -2z"/>
<path d="M6580 1851 c0 -6 5 -13 10 -16 6 -3 10 1 10 9 0 9 -4 16 -10 16 -5 0
-10 -4 -10 -9z"/>
<path d="M6654 1798 c3 -13 11 -48 18 -78 7 -30 15 -57 19 -60 4 -3 9 -16 10
-30 2 -14 9 -23 14 -20 6 3 9 12 7 20 -1 8 -5 38 -7 65 -3 28 -9 59 -14 70 -5
11 -12 28 -15 38 -3 9 -13 17 -22 17 -12 0 -15 -6 -10 -22z"/>
<path d="M4958 1793 c7 -3 16 -2 19 1 4 3 -2 6 -13 5 -11 0 -14 -3 -6 -6z"/>
<path d="M5105 1790 c4 -6 11 -8 16 -5 14 9 11 15 -7 15 -8 0 -12 -5 -9 -10z"/>
<path d="M5144 1759 c-3 -6 -2 -15 2 -19 12 -12 38 5 30 19 -9 14 -23 14 -32
0z"/>
<path d="M4935 1750 c-3 -5 -18 -11 -33 -11 -17 -1 -21 -3 -9 -6 9 -2 17 -10
17 -16 0 -7 5 -5 10 5 6 10 18 14 30 11 14 -4 20 0 20 11 0 18 -25 22 -35 6z"/>
<path d="M9960 1740 c0 -5 7 -10 15 -10 8 0 15 5 15 10 0 6 -7 10 -15 10 -8 0
-15 -4 -15 -10z"/>
<path d="M4838 1723 c7 -3 16 -2 19 1 4 3 -2 6 -13 5 -11 0 -14 -3 -6 -6z"/>
<path d="M5040 1720 c0 -5 9 -10 20 -10 11 0 20 5 20 10 0 6 -9 10 -20 10 -11
0 -20 -4 -20 -10z"/>
<path d="M10070 1720 c0 -5 5 -10 11 -10 5 0 7 5 4 10 -3 6 -8 10 -11 10 -2 0
-4 -4 -4 -10z"/>
<path d="M5125 1700 c-3 -5 -15 -10 -26 -10 -10 0 -19 -4 -19 -10 0 -5 -15
-11 -32 -11 -18 -1 -25 -3 -15 -6 9 -2 17 -9 17 -15 0 -6 6 -6 15 2 8 7 24 10
35 7 11 -3 22 -2 25 3 2 4 19 10 37 14 19 4 28 10 22 15 -16 15 -52 22 -59 11z"/>
<path d="M8031 1677 c31 -24 65 -233 72 -447 1 -44 7 -69 17 -77 10 -8 11 -12
3 -13 -9 0 -13 -24 -14 -77 0 -43 -1 -91 -1 -108 -1 -16 -1 -61 0 -100 1 -38
-1 -112 -3 -163 -4 -82 -8 -96 -28 -112 -12 -10 -19 -21 -15 -25 3 -3 41 -10
85 -15 43 -5 89 -11 103 -13 14 -2 66 -8 115 -12 62 -5 98 -14 117 -26 27 -20
53 -25 44 -10 -3 5 2 12 11 16 10 3 19 1 21 -4 2 -6 17 -11 33 -11 16 0 29 -4
29 -10 0 -5 11 -10 25 -10 15 0 25 6 25 14 0 12 5 12 31 -1 20 -10 65 -17 118
-18 47 -2 120 -10 161 -19 41 -8 101 -17 132 -20 32 -3 83 -10 115 -15 32 -6
83 -12 113 -15 30 -2 62 -6 70 -9 68 -22 99 -28 125 -24 17 3 30 6 30 7 0 6
97 4 101 -2 3 -4 -2 -8 -10 -8 -9 0 -16 -4 -16 -9 0 -13 27 -21 45 -15 8 4 15
1 15 -5 0 -6 17 -11 39 -11 22 0 42 -4 45 -9 7 -10 31 -15 175 -36 57 -8 108
-12 113 -9 5 3 14 1 21 -4 7 -5 44 -14 82 -20 39 -6 113 -20 165 -32 52 -12
104 -23 115 -25 11 -2 52 -10 90 -18 62 -13 152 -27 180 -29 6 0 19 -5 30 -11
22 -11 122 -25 225 -31 36 -2 77 -6 92 -10 27 -8 68 7 68 24 0 6 -10 11 -22
11 -19 1 -20 2 -4 6 10 3 28 0 40 -5 11 -6 33 -13 49 -16 15 -4 27 -13 27 -21
0 -8 7 -15 15 -15 16 0 10 30 -9 42 -30 20 92 55 126 37 15 -8 18 -6 18 12 0
22 0 22 21 3 19 -17 23 -17 32 -3 9 14 18 14 86 2 42 -7 100 -15 128 -18 44
-5 52 -3 47 10 -9 21 9 19 26 -4 12 -18 16 -19 48 -5 19 7 39 11 46 6 6 -4 31
-7 55 -7 27 0 46 -5 48 -12 3 -7 -2 -13 -10 -13 -18 0 -75 -28 -83 -41 -3 -5
-23 -17 -44 -25 -21 -9 -41 -22 -44 -30 -5 -12 37 -14 279 -14 270 0 285 1
285 18 0 15 -8 19 -36 20 -20 1 -46 5 -58 8 -11 4 -77 17 -145 28 -73 13 -126
26 -129 34 -5 17 106 15 181 -4 32 -8 79 -14 105 -13 26 1 55 -2 65 -6 16 -7
17 7 17 207 l0 214 -77 13 c-96 16 -493 87 -588 105 -38 8 -103 19 -144 26
l-73 12 6 42 c3 22 10 70 16 106 5 36 10 89 10 118 l0 52 -48 -25 c-134 -70
-395 -92 -707 -60 -77 8 -156 15 -175 15 l-35 0 30 -20 c17 -11 37 -24 45 -29
8 -5 41 -14 72 -21 32 -6 61 -16 64 -22 5 -7 -4 -8 -27 -4 -19 4 -63 11 -99
16 -117 15 -202 43 -222 73 -10 17 3 37 26 38 14 0 16 2 6 6 -8 3 -17 9 -20
12 -9 11 -78 61 -84 61 -3 0 -6 -37 -6 -81 l0 -82 -37 6 c-69 10 -277 48 -343
62 -36 8 -96 19 -135 25 -309 47 -669 110 -677 118 -5 5 -4 111 3 276 13 266
13 268 36 277 24 9 32 39 11 39 -16 0 -160 -59 -180 -74 -21 -16 -23 -46 -14
-301 4 -110 8 -228 10 -262 1 -35 -2 -63 -6 -63 -4 0 -8 29 -8 64 l0 64 -62
11 c-182 34 -494 88 -585 102 -40 6 -77 17 -83 24 -7 9 -7 78 0 225 6 117 9
215 6 217 -10 10 -84 23 -136 22 -45 0 -52 -2 -39 -12z m1824 -1076 c3 -5 1
-13 -5 -16 -15 -9 -43 3 -35 15 8 13 32 13 40 1z m12 -207 c-9 -9 -28 6 -21
18 4 6 10 6 17 -1 6 -6 8 -13 4 -17z m63 -4 c0 -5 -4 -10 -9 -10 -6 0 -13 5
-16 10 -3 6 1 10 9 10 9 0 16 -4 16 -10z m63 -17 c-7 -2 -19 -2 -25 0 -7 3 -2
5 12 5 14 0 19 -2 13 -5z m-107 -34 c5 -8 9 -8 14 1 9 15 70 4 70 -13 0 -8
-17 -11 -52 -9 -65 4 -81 9 -73 22 8 13 32 13 41 -1z m272 -49 c25 -8 24 -8
-10 -9 -28 -1 -38 3 -38 15 0 8 5 12 11 9 6 -4 23 -11 37 -15z m652 -138 c-7
-3 -19 3 -28 13 -16 15 -15 16 12 4 15 -7 23 -15 16 -17z"/>
<path d="M4962 1643 c2 -10 12 -18 23 -18 11 0 21 8 23 18 3 13 -3 17 -23 17
-20 0 -26 -4 -23 -17z"/>
<path d="M6721 1564 c0 -11 3 -14 6 -6 3 7 2 16 -1 19 -3 4 -6 -2 -5 -13z"/>
<path d="M8608 1553 c7 -3 16 -2 19 1 4 3 -2 6 -13 5 -11 0 -14 -3 -6 -6z"/>
<path d="M8678 1533 c6 -2 18 -2 25 0 6 3 1 5 -13 5 -14 0 -19 -2 -12 -5z"/>
<path d="M6715 1300 c-3 -5 1 -10 10 -10 9 0 13 5 10 10 -3 6 -8 10 -10 10 -2
0 -7 -4 -10 -10z"/>
<path d="M6845 1080 c-9 -15 0 -23 33 -28 15 -2 24 -2 22 0 -3 2 -15 11 -27
21 -15 13 -23 15 -28 7z"/>
<path d="M6860 946 c0 -2 7 -6 15 -10 8 -3 15 -1 15 4 0 6 -7 10 -15 10 -8 0
-15 -2 -15 -4z"/>
<path d="M7445 660 c-3 -5 1 -10 10 -10 9 0 13 5 10 10 -3 6 -8 10 -10 10 -2
0 -7 -4 -10 -10z"/>
<path d="M1650 507 c0 -25 195 -225 227 -233 27 -7 70 24 46 33 -7 3 -13 11
-13 18 0 7 -9 15 -21 18 -12 3 -18 10 -14 16 8 15 -43 58 -77 66 -16 4 -28 11
-28 16 0 5 -6 9 -14 9 -7 0 -30 14 -51 30 -33 26 -55 37 -55 27z"/>
<path d="M8430 479 c0 -5 5 -7 10 -4 6 3 10 8 10 11 0 2 -4 4 -10 4 -5 0 -10
-5 -10 -11z"/>
<path d="M1533 429 c-8 -8 -3 -23 18 -54 16 -24 29 -49 29 -57 0 -7 9 -19 20
-26 11 -7 20 -19 20 -27 0 -9 11 -33 25 -55 14 -22 25 -43 25 -48 0 -5 22 -29
48 -55 27 -25 55 -59 62 -76 11 -27 17 -31 50 -31 47 0 53 15 23 59 -13 18
-23 43 -23 53 0 11 -16 33 -35 50 -18 17 -37 44 -40 59 -4 16 -12 32 -19 36
-7 5 -31 34 -55 66 -23 31 -45 57 -50 57 -4 0 -14 11 -21 25 -10 19 -16 22
-27 14 -9 -9 -14 -7 -19 5 -7 19 -16 20 -31 5z"/>
<path d="M9605 340 c3 -5 11 -10 16 -10 6 0 7 5 4 10 -3 6 -11 10 -16 10 -6 0
-7 -4 -4 -10z"/>
<path d="M734 184 c12 -26 36 -33 36 -11 0 8 -11 19 -24 25 -22 10 -23 9 -12
-14z"/>
<path d="M7460 189 c0 -9 48 -24 55 -17 2 2 -9 9 -25 15 -17 6 -30 7 -30 2z"/>
<path d="M964 177 c-34 -7 -69 -18 -77 -25 -9 -8 -38 -19 -63 -26 -60 -15 -65
-31 -19 -53 34 -16 37 -16 72 2 19 11 48 18 62 17 28 -3 159 64 164 83 3 14
-67 15 -139 2z"/>
<path d="M10866 71 c-3 -5 -16 -7 -27 -4 -15 4 -20 2 -17 -7 7 -21 21 -21 48
0 14 11 20 20 13 20 -6 0 -14 -4 -17 -9z"/>
<path d="M195 60 l-30 -8 32 -1 c18 0 36 -7 40 -14 8 -15 77 -30 87 -20 3 3
-6 17 -20 30 -26 24 -54 27 -109 13z"/>
<path d="M1216 54 c-4 -10 -1 -14 6 -12 15 5 23 28 10 28 -5 0 -13 -7 -16 -16z"/>
<path d="M10920 54 l-25 -14 27 0 c15 0 29 4 33 9 9 16 -9 18 -35 5z"/>
<path d="M10995 59 c-10 -16 0 -22 42 -23 26 -1 40 -7 45 -19 6 -14 20 -17 74
-17 48 0 65 3 62 12 -3 8 -27 14 -59 16 -30 2 -58 7 -63 13 -6 5 -22 9 -37 9
-15 0 -31 5 -34 10 -8 13 -22 13 -30 -1z"/>
<path d="M577 24 c-3 -4 -21 -10 -39 -14 -29 -7 -26 -8 25 -9 44 -1 57 2 57
14 0 15 -31 21 -43 9z"/>
<path d="M10948 23 c7 -3 16 -2 19 1 4 3 -2 6 -13 5 -11 0 -14 -3 -6 -6z"/>
</g>
</svg>
